<svg width="1604" height="1630" viewBox="0 0 1604 1630" fill="none" xmlns="http://www.w3.org/2000/svg">
<path d="M653.364 206.379C644.899 208.475 636.353 208.242 627.724 205.681C619.096 203.119 611.384 198.271 604.59 191.134C597.874 183.979 593.073 174.577 590.189 162.929C587.305 151.28 587.164 140.725 589.766 131.262C592.427 121.703 596.975 113.777 603.412 107.486C609.829 101.117 617.27 96.8843 625.734 94.7886C636.218 92.1929 645.537 94.0476 653.691 100.353C661.826 106.58 668.284 116.684 673.064 130.665L645.925 21.0548L631.947 24.5156L631.832 24.0497L666.893 15.3687L710.039 189.627L724.017 186.166L724.132 186.632L689.071 195.313L678.544 152.797C680.839 167.393 679.842 179.343 675.552 188.647C671.243 197.873 663.847 203.783 653.364 206.379ZM656.454 203.883C662.511 202.383 667.525 198.999 671.495 193.731C675.465 188.462 677.897 181.473 678.79 172.763C679.76 164.034 678.765 153.69 675.804 141.731C672.843 129.772 668.897 120.159 663.966 112.891C659.093 105.526 653.672 100.44 647.702 97.6323C641.713 94.7471 635.69 94.0544 629.633 95.5541C623.11 97.1692 618.338 100.864 615.317 106.64C612.278 112.337 610.767 119.552 610.786 128.283C610.786 136.937 612.074 146.466 614.651 156.872C617.227 167.278 620.534 176.308 624.572 183.962C628.61 191.616 633.302 197.253 638.649 200.874C643.996 204.495 649.931 205.498 656.454 203.883Z" fill="#B3B0AA"/>
<path d="M514.579 198.894C511.388 192.085 508.696 185.306 506.505 178.558C504.314 171.81 503.045 165.426 502.696 159.404C502.314 153.311 503.274 147.913 505.576 143.211C507.845 138.437 511.84 134.709 517.563 132.027C521.619 130.126 525.487 129.329 529.165 129.637C532.882 129.839 536.165 130.906 539.015 132.839C541.865 134.773 544.037 137.333 545.531 140.52C547.262 144.214 547.6 147.856 546.542 151.443C545.558 154.997 543.073 157.708 539.089 159.575C534.96 161.511 531.21 161.899 527.84 160.74C524.542 159.547 522.129 157.32 520.601 154.06C518.598 149.787 518.463 145.918 520.197 142.455C521.931 138.991 524.356 136.53 527.471 135.07C529.861 133.949 532.253 133.491 534.645 133.695C537.076 133.792 539.243 134.456 541.144 135.685C543.012 136.842 544.438 138.47 545.422 140.571L545.096 140.724C543.636 137.609 541.498 135.121 538.682 133.26C535.939 131.366 532.745 130.3 529.101 130.065C525.528 129.795 521.75 130.594 517.766 132.462C512.044 135.144 508.085 138.855 505.889 143.595C503.693 148.335 502.786 153.752 503.168 159.846C503.589 165.833 504.895 172.201 507.086 178.949C509.316 185.59 511.958 192.171 515.014 198.69L514.579 198.894ZM490.874 147.187L537.524 246.717L550.563 240.605L550.767 241.04L505.131 262.43L504.927 261.995L518.075 255.833L471.628 156.738L458.48 162.9L458.277 162.466L490.874 147.187Z" fill="#B3B0AA"/>
<path d="M479.601 280.887C476.538 283.066 473.336 284.707 469.995 285.807C466.701 286.973 463.315 286.976 459.839 285.816C456.429 284.61 453.077 281.693 449.784 277.065L417.852 232.186C414.513 227.493 410.792 223.022 406.689 218.774C402.605 214.414 398.188 211.518 393.439 210.086C388.754 208.608 383.805 209.725 378.59 213.435C374.94 216.032 371.647 219.062 368.711 222.526C365.775 225.989 363.411 229.635 361.618 233.463C359.844 237.18 358.88 240.861 358.724 244.506C358.587 248.04 359.539 251.241 361.58 254.109L361.385 254.248C359.019 250.924 358.24 247.551 359.046 244.13C359.871 240.598 361.587 237.904 364.194 236.049C366.997 234.055 370.188 233.158 373.768 233.36C377.367 233.451 380.349 235.158 382.715 238.482C385.498 242.393 386.309 246.087 385.15 249.563C384.055 252.993 382.172 255.658 379.499 257.56C376.501 259.693 373.309 260.589 369.925 260.248C366.605 259.861 363.693 257.907 361.189 254.387C359.009 251.324 358.006 247.913 358.181 244.157C358.374 240.288 359.497 236.347 361.55 232.333C363.623 228.208 366.42 224.205 369.942 220.324C373.418 216.378 377.373 212.828 381.805 209.674C390.801 203.274 398.595 200.085 405.189 200.106C411.847 200.081 417.6 202.026 422.448 205.941C427.36 209.809 431.695 214.384 435.452 219.664L471.488 270.312C473.158 272.658 475.075 274.387 477.24 275.498C479.423 276.497 481.917 275.999 484.72 274.005C487.001 272.382 488.722 269.488 489.883 265.324C491.109 261.113 491.215 256.57 490.201 251.695L490.634 251.682C491.907 257.06 491.604 262.43 489.725 267.792C487.8 273.09 484.425 277.455 479.601 280.887ZM434.526 312.958C426.053 318.987 417.743 321.659 409.598 320.975C401.471 320.179 394.764 316.065 389.477 308.634C383.262 299.899 382.158 290.621 386.166 280.798C390.193 270.864 399.148 260.958 413.032 251.079L434.25 235.983L434.528 236.374L413.311 251.47C407.574 255.551 404.064 260.209 402.781 265.442C401.516 270.564 401.581 275.623 402.976 280.62C404.436 285.57 406.442 289.838 408.993 293.423C411.312 296.682 414.138 299.826 417.471 302.855C420.757 305.818 424.26 307.843 427.978 308.928C431.649 309.949 435.18 309.253 438.569 306.841C442.48 304.059 445.231 300.334 446.82 295.669C448.363 290.938 448.281 285.302 446.572 278.761C444.864 272.22 441.041 264.778 435.105 256.434L435.496 256.156C440.783 263.587 444.509 270.755 446.672 277.659C448.835 284.564 449.01 291.018 447.194 297.023C445.398 302.915 441.175 308.227 434.526 312.958Z" fill="#B3B0AA"/>
<path d="M352.197 387.526C344.502 395.773 335.914 401.109 326.432 403.531C317.004 405.896 307.575 405.742 298.143 403.069C288.711 400.396 280.193 395.512 272.588 388.417C264.984 381.322 259.522 373.162 256.203 363.938C252.883 354.714 252.076 345.317 253.782 335.749C255.543 326.122 260.271 317.185 267.966 308.937C275.661 300.69 284.249 295.354 293.731 292.931C303.213 290.509 312.643 290.663 322.02 293.394C331.452 296.067 339.97 300.951 347.575 308.046C355.179 315.141 360.641 323.3 363.96 332.525C367.335 341.691 368.141 351.087 366.381 360.714C364.62 370.341 359.892 379.278 352.197 387.526ZM351.846 387.198C356.321 382.402 358.521 377.288 358.446 371.857C358.426 366.367 356.963 360.899 354.057 355.452C351.093 349.952 347.431 344.729 343.071 339.786C338.707 334.73 334.478 330.292 330.384 326.472C326.23 322.597 321.51 318.685 316.222 314.736C310.989 310.729 305.555 307.465 299.921 304.943C294.228 302.367 288.643 301.259 283.165 301.618C277.741 301.919 272.792 304.468 268.317 309.265C263.842 314.061 261.614 319.204 261.635 324.694C261.71 330.125 263.229 335.591 266.194 341.092C269.099 346.539 272.705 351.763 277.01 356.764C281.37 361.707 285.626 366.116 289.78 369.991C293.874 373.811 298.567 377.753 303.859 381.814C309.146 385.763 314.637 389.025 320.33 391.602C325.964 394.123 331.493 395.234 336.916 394.932C342.394 394.573 347.371 391.995 351.846 387.198Z" fill="#B3B0AA"/>
<path d="M228.553 564.553L228.138 564.312L264.166 502.114C267.614 496.16 268.933 489.574 268.122 482.355C267.242 475.097 264.431 468.06 259.688 461.244C254.985 454.36 248.515 448.532 240.277 443.76C232.039 438.989 224.353 436.617 217.218 436.644C210.123 436.602 203.832 438.366 198.343 441.936C192.786 445.466 188.282 450.207 184.834 456.161L170.459 480.978L170.043 480.737L185.682 453.74C191.336 443.979 197.705 435.696 204.79 428.891C211.876 422.085 219.507 417.769 227.684 415.942C235.862 414.114 244.45 415.807 253.449 421.02C269.025 430.042 277.418 441.329 278.628 454.881C279.81 468.324 275.548 483.421 265.844 500.174L228.553 564.553ZM239.112 545.846L83.7705 455.865L95.2587 436.032L250.6 526.013L239.112 545.846ZM170.459 480.978L170.043 480.737L183.276 457.893C186.323 452.632 187.999 446.946 188.303 440.835C188.647 434.655 187.119 428.593 183.721 422.649C180.293 416.596 174.461 411.184 166.223 406.412C157.985 401.64 150.007 399.053 142.29 398.651C134.543 398.139 127.659 399.329 121.639 402.221C115.659 405.043 111.145 409.085 108.097 414.346L73.2118 474.572L72.7964 474.332L107.682 414.106C116.784 398.392 127.108 387.592 138.653 381.706C150.169 375.71 162.677 376.622 176.176 384.441C189.675 392.261 196.745 402.319 197.387 414.618C197.96 426.876 193.395 441.381 183.691 458.134L170.459 480.978Z" fill="#B3B0AA"/>
<path d="M197.375 682.611C195.191 692.861 190.985 701.657 184.758 709.001C178.469 716.249 170.622 721.407 161.216 724.474C151.732 727.525 141.122 727.8 129.385 725.299C117.649 722.798 108.095 718.308 100.723 711.83C93.2898 705.256 88.2102 697.425 85.4843 688.338C82.6801 679.234 82.3701 669.556 84.5542 659.307C87.0384 647.648 91.3864 638.759 97.5982 632.639C103.732 626.503 110.896 622.631 119.091 621.024C127.303 619.338 135.673 619.404 144.201 621.221L125.695 708.071L125.225 707.971L138.43 646.003C133.83 644.941 128.733 644.1 123.14 643.481C117.468 642.844 111.953 642.815 106.595 643.391C101.176 643.872 96.5205 645.374 92.6289 647.899C88.6758 650.328 86.1407 654.164 85.0237 659.407C83.7899 665.197 84.4076 670.359 86.8769 674.893C89.2846 679.332 92.9935 683.231 98.0037 686.589C102.936 689.93 108.588 692.77 114.96 695.11C121.349 697.371 127.908 699.218 134.637 700.652C141.288 702.069 148.03 703.056 154.864 703.613C161.637 704.074 167.964 703.746 173.847 702.627C179.667 701.413 184.654 699.122 188.807 695.754C192.899 692.291 195.628 687.351 196.996 680.935C199.597 668.729 198.288 657.98 193.07 648.689C187.852 639.397 180.7 632.27 171.615 627.308L171.715 626.839C181.236 632.057 188.589 639.391 193.774 648.839C198.959 658.287 200.159 669.544 197.375 682.611Z" fill="#B3B0AA"/>
<path d="M180 881.585L179.52 881.584L179.548 867.064L0.508645 866.711L0.480007 881.231L0 881.23L0.0710017 845.23L179.591 845.584L179.619 831.184L180.099 831.185L180 881.585ZM180.144 808.265L179.664 808.264L179.692 793.984L106.253 793.839C99.4526 793.826 93.2121 794.094 87.531 794.642C81.7699 795.191 77.1273 796.502 73.6032 798.575C70.0792 800.568 68.3129 803.805 68.304 808.285C68.2871 816.845 70.2737 823.649 74.2638 828.696C78.254 833.664 83.3267 837.354 89.482 839.766C95.5572 842.178 101.914 843.751 108.553 844.484C115.191 845.137 121.191 845.469 126.551 845.48L127.75 845.962C122.07 845.951 115.79 845.618 108.912 844.965C101.953 844.311 95.316 842.778 89.0008 840.365C82.6857 837.873 77.4934 833.943 73.424 828.575C69.3547 823.127 67.3294 815.683 67.348 806.243C67.3665 796.883 68.9405 789.766 72.0702 784.892C75.1999 779.938 79.5265 776.587 85.05 774.838C90.4936 773.008 96.6954 772.101 103.655 772.114L179.735 772.264L179.764 757.864L180.244 757.865L180.144 808.265Z" fill="#B3B0AA"/>
<path d="M207.224 1007.65L206.757 1007.76L200.656 982.075L26.4618 1023.45L32.0355 1046.91C33.6623 1053.76 36.3258 1059.09 40.0259 1062.9C43.6482 1066.73 48.1383 1069.36 53.4963 1070.8C58.7764 1072.26 64.7371 1072.78 71.3784 1072.35C77.9233 1071.87 84.8929 1070.75 92.2872 1068.99L92.3981 1069.46L39.8597 1081.93L6.86125 943L59.3997 930.521L59.5384 931.105C52.1441 932.861 45.424 935.033 39.3782 937.62C33.2361 940.148 28.135 943.25 24.075 946.928C19.9371 950.624 17.12 955.035 15.6237 960.159C14.031 965.224 14.0481 971.182 15.6749 978.031L21.1931 1001.26L195.387 959.892L189.287 934.207L189.754 934.096L207.224 1007.65Z" fill="#B3B0AA"/>
<path d="M279.216 1155.48C285.191 1165.05 288.121 1174.73 288.007 1184.51C287.851 1194.23 285.261 1203.3 280.238 1211.72C275.215 1220.13 268.292 1227.1 259.471 1232.61C250.65 1238.12 241.355 1241.28 231.585 1242.1C221.816 1242.92 212.531 1241.26 203.73 1237.14C194.887 1232.95 187.478 1226.07 181.504 1216.5C175.529 1206.93 172.598 1197.26 172.712 1187.47C172.826 1177.68 175.416 1168.62 180.482 1160.26C185.505 1151.85 192.427 1144.88 201.248 1139.37C210.07 1133.86 219.365 1130.7 229.134 1129.88C238.861 1129 248.146 1130.65 256.989 1134.84C265.832 1139.03 273.241 1145.91 279.216 1155.48ZM278.809 1155.73C275.334 1150.17 270.964 1146.72 265.698 1145.39C260.39 1143.99 254.73 1143.99 248.717 1145.38C242.636 1146.82 236.644 1149.01 230.741 1151.94C224.728 1154.85 219.346 1157.78 214.596 1160.75C209.779 1163.76 204.778 1167.3 199.595 1171.39C194.37 1175.41 189.811 1179.81 185.917 1184.6C181.955 1189.43 179.438 1194.54 178.368 1199.92C177.255 1205.24 178.436 1210.68 181.911 1216.25C185.385 1221.81 189.777 1225.29 195.085 1226.69C200.35 1228.03 206.023 1227.97 212.104 1226.53C218.117 1225.14 224.096 1223.01 230.042 1220.14C235.945 1217.21 241.305 1214.24 246.123 1211.23C250.873 1208.27 255.894 1204.75 261.187 1200.69C266.37 1196.61 270.943 1192.15 274.905 1187.32C278.799 1182.53 281.302 1177.47 282.415 1172.16C283.485 1166.77 282.283 1161.3 278.809 1155.73Z" fill="#B3B0AA"/>
<path d="M397.49 1299.76L397.151 1300.1L378.451 1281.46L252.071 1408.28L269.156 1425.31C274.143 1430.28 279.211 1433.41 284.361 1434.7C289.454 1436.05 294.658 1435.93 299.973 1434.33C305.231 1432.8 310.572 1430.1 315.996 1426.25C321.307 1422.39 326.645 1417.77 332.009 1412.39L332.349 1412.73L294.232 1450.98L193.082 1350.18L231.199 1311.93L231.624 1312.35C226.259 1317.73 221.687 1323.12 217.906 1328.5C214.012 1333.88 211.306 1339.2 209.788 1344.46C208.213 1349.78 208.137 1355.02 209.561 1360.16C210.871 1365.31 214.019 1370.36 219.006 1375.33L235.921 1392.19L362.301 1265.37L343.601 1246.73L343.939 1246.39L397.49 1299.76Z" fill="#B3B0AA"/>
<path d="M558.795 1399.44L543.259 1429.24L542.833 1429.02C545.466 1423.62 546.21 1417.78 545.064 1411.5C543.811 1405.25 541.102 1399.38 536.938 1393.87C532.774 1388.36 527.606 1383.99 521.435 1380.77C517.179 1378.55 512.732 1377.05 508.094 1376.25C503.385 1375.42 498.995 1375.79 494.925 1377.37C490.747 1378.98 487.344 1382.3 484.718 1387.34C482.35 1391.88 481.955 1396.18 483.532 1400.25C485.108 1404.33 487.795 1408.34 491.592 1412.31C495.352 1416.34 499.432 1420.46 503.834 1424.65C508.198 1428.91 512.094 1433.38 515.521 1438.05C518.911 1442.79 521.024 1447.91 521.861 1453.4C522.698 1458.89 521.396 1464.93 517.956 1471.53C515.588 1476.07 512.212 1479.95 507.828 1483.17C503.335 1486.42 498.15 1488.31 492.273 1488.86C486.358 1489.47 480.031 1488.02 473.293 1484.51C468.115 1481.81 463.841 1478.5 460.473 1474.58C457.105 1470.65 454.617 1466.51 453.01 1462.16L438.495 1466.63L438.069 1466.41L453.606 1436.62L454.031 1436.84C451.627 1441.45 450.749 1446.77 451.398 1452.79C452.047 1458.81 454.202 1464.63 457.863 1470.24C461.488 1475.92 466.634 1480.49 473.302 1483.97C477.416 1486.12 481.473 1487.42 485.473 1487.88C489.365 1488.38 492.932 1487.94 496.176 1486.56C499.349 1485.15 501.842 1482.71 503.655 1479.23C505.874 1474.97 506.125 1470.77 504.406 1466.63C502.617 1462.45 499.773 1458.21 495.874 1453.92C491.904 1449.6 487.668 1445.18 483.165 1440.66C478.554 1436.18 474.484 1431.45 470.955 1426.45C467.318 1421.48 465.01 1416.22 464.032 1410.66C462.945 1405.13 464.048 1399.21 467.34 1392.89C470.633 1386.58 475.151 1381.81 480.895 1378.58C486.603 1375.42 492.944 1373.9 499.92 1374.02C506.824 1374.1 513.717 1375.94 520.598 1379.52C525.989 1382.34 530.598 1385.87 534.426 1390.12C538.253 1394.37 541.145 1398.95 543.101 1403.85L558.37 1399.22L558.795 1399.44Z" fill="#B3B0AA"/>
<path d="M623.955 1422.83C633.963 1425.94 642.341 1430.93 649.088 1437.8C655.734 1444.72 660.157 1453 662.355 1462.65C664.53 1472.37 663.839 1482.96 660.281 1494.42C656.723 1505.88 651.382 1514.99 644.26 1521.74C637.038 1528.54 628.777 1532.89 619.479 1534.78C610.158 1536.74 600.493 1536.17 590.484 1533.06C579.1 1529.53 570.643 1524.39 565.114 1517.65C559.561 1510.98 556.357 1503.49 555.502 1495.19C554.57 1486.86 555.397 1478.53 557.982 1470.2L642.789 1496.53L642.647 1496.99L582.136 1478.2C580.66 1482.69 579.359 1487.68 578.234 1493.2C577.084 1498.79 576.553 1504.28 576.639 1509.67C576.625 1515.11 577.698 1519.88 579.858 1523.98C581.918 1528.14 585.507 1531.02 590.626 1532.61C596.28 1534.36 601.477 1534.22 606.217 1532.17C610.857 1530.17 615.077 1526.84 618.876 1522.15C622.652 1517.54 625.995 1512.17 628.904 1506.04C631.737 1499.88 634.174 1493.52 636.214 1486.95C638.23 1480.46 639.826 1473.83 641.002 1467.08C642.078 1460.37 642.326 1454.04 641.748 1448.08C641.069 1442.18 639.241 1437 636.264 1432.56C633.187 1428.17 628.516 1425 622.251 1423.06C610.333 1419.36 599.509 1419.68 589.782 1424.03C580.054 1428.38 572.306 1434.86 566.538 1443.45L566.079 1443.31C572.143 1434.3 580.115 1427.65 589.995 1423.34C599.876 1419.04 611.196 1418.87 623.955 1422.83Z" fill="#B3B0AA"/>
<path d="M703.429 1600.58C707.307 1601.15 710.467 1603.03 712.909 1606.22C715.261 1609.47 716.152 1613.04 715.581 1616.92C715 1620.88 713.12 1624.04 709.943 1626.4C706.686 1628.75 703.119 1629.64 699.24 1629.07C695.283 1628.49 692.123 1626.61 689.76 1623.43C687.396 1620.26 686.506 1616.69 687.088 1612.73C687.658 1608.85 689.537 1605.69 692.726 1603.25C695.904 1600.89 699.471 1600 703.429 1600.58ZM699.145 1556.29L715.131 1447.53L700.884 1445.44L700.954 1444.96L750.818 1452.29L750.748 1452.77L736.501 1450.67L720.585 1558.95L734.832 1561.05L734.762 1561.52L699.145 1556.29Z" fill="#B3B0AA"/>
<path d="M822.105 1508.62C822.063 1516.14 821.582 1523.42 820.662 1530.46C819.743 1537.49 818.148 1543.8 815.876 1549.39C813.605 1555.06 810.42 1559.52 806.321 1562.78C802.223 1566.11 797.013 1567.76 790.693 1567.73C786.213 1567.7 782.379 1566.76 779.189 1564.9C775.919 1563.13 773.412 1560.75 771.669 1557.78C769.925 1554.81 769.063 1551.57 769.083 1548.05C769.106 1543.97 770.365 1540.53 772.861 1537.75C775.277 1534.96 778.684 1533.58 783.084 1533.61C787.644 1533.63 791.197 1534.89 793.743 1537.39C796.209 1539.88 797.432 1542.93 797.412 1546.53C797.386 1551.25 795.846 1554.8 792.792 1557.18C789.739 1559.56 786.492 1560.75 783.052 1560.73C780.412 1560.71 778.056 1560.1 775.983 1558.89C773.829 1557.75 772.157 1556.23 770.968 1554.3C769.779 1552.45 769.19 1550.37 769.203 1548.05L769.563 1548.05C769.544 1551.49 770.406 1554.66 772.15 1557.55C773.814 1560.43 776.241 1562.77 779.431 1564.55C782.541 1566.32 786.296 1567.22 790.696 1567.25C797.016 1567.28 802.185 1565.63 806.204 1562.3C810.223 1558.96 813.368 1554.46 815.64 1548.79C817.831 1543.2 819.386 1536.89 820.306 1529.85C821.145 1522.9 821.584 1515.82 821.625 1508.62L822.105 1508.62ZM821.306 1565.5L821.922 1455.58L807.522 1455.5L807.524 1455.02L857.924 1455.3L857.921 1455.78L843.401 1455.7L842.789 1565.14L857.308 1565.22L857.306 1565.7L821.306 1565.5Z" fill="#B3B0AA"/>
<path d="M931.366 1442.09C942.461 1440.06 952.537 1440.89 961.594 1444.6C970.573 1448.32 978.052 1454.07 984.031 1461.84C990.011 1469.6 993.939 1478.6 995.815 1488.83C997.691 1499.06 997.212 1508.87 994.379 1518.25C991.545 1527.64 986.592 1535.66 979.518 1542.33C972.366 1549.01 963.242 1553.37 952.147 1555.4C941.052 1557.44 930.976 1556.6 921.919 1552.89C912.862 1549.19 905.382 1543.44 899.482 1535.66C893.502 1527.89 889.574 1518.89 887.698 1508.66C885.822 1498.43 886.301 1488.62 889.134 1479.24C891.889 1469.87 896.843 1461.84 903.995 1455.16C911.147 1448.48 920.271 1444.13 931.366 1442.09ZM931.452 1442.56C925 1443.75 920.185 1446.54 917.008 1450.95C913.752 1455.37 911.667 1460.63 910.753 1466.73C909.854 1472.92 909.681 1479.29 910.235 1485.86C910.725 1492.52 911.475 1498.61 912.485 1504.12C913.509 1509.7 914.967 1515.66 916.859 1521.98C918.672 1528.32 921.089 1534.18 924.109 1539.56C927.144 1545.02 930.968 1549.24 935.581 1552.22C940.115 1555.21 945.608 1556.11 952.061 1554.93C958.513 1553.75 963.367 1550.94 966.623 1546.52C969.801 1542.12 971.839 1536.82 972.738 1530.64C973.652 1524.54 973.871 1518.19 973.396 1511.61C972.842 1505.04 972.053 1498.97 971.028 1493.38C970.018 1487.87 968.599 1481.91 966.772 1475.49C964.88 1469.17 962.417 1463.28 959.382 1457.82C956.361 1452.43 952.584 1448.25 948.05 1445.25C943.437 1442.28 937.905 1441.38 931.452 1442.56Z" fill="#B3B0AA"/>
<path d="M1190.75 1467.38L1143.51 1368.13L1130.5 1374.32L1130.3 1373.89L1175.8 1352.22L1176.01 1352.66L1162.9 1358.9L1209.94 1457.71L1223.05 1451.47L1223.26 1451.9L1190.75 1467.38ZM1114.34 1466.28L1081.64 1397.58L1068.64 1403.77L1068.43 1403.34L1113.94 1381.67L1114.14 1382.11L1101.14 1388.3L1132.71 1454.61C1135.6 1460.67 1138.46 1466.22 1141.3 1471.25C1144.06 1476.31 1147.07 1480.02 1150.32 1482.38C1153.49 1484.76 1157.1 1484.99 1161.14 1483.07C1167.79 1479.9 1172.28 1475.55 1174.6 1470.02C1176.85 1464.51 1177.7 1458.48 1177.15 1451.92C1176.56 1445.47 1175.2 1439.08 1173.07 1432.74C1170.86 1426.43 1168.61 1420.86 1166.3 1416.02L1166.22 1414.73C1168.66 1419.86 1171.07 1425.67 1173.45 1432.15C1175.8 1438.75 1177.28 1445.4 1177.9 1452.1C1178.45 1458.84 1177.43 1465.08 1174.85 1470.83C1172.2 1476.61 1167.15 1481.27 1159.71 1484.81C1152.13 1488.42 1145.5 1489.85 1139.83 1489.1C1134.15 1488.34 1129.22 1485.9 1125.05 1481.78C1120.9 1477.73 1117.33 1472.56 1114.34 1466.28ZM1052.58 1495.68L1019.88 1426.98L1006.99 1433.12L1006.78 1432.69L1052.29 1411.02L1052.49 1411.46L1039.49 1417.65L1071.06 1483.96C1073.95 1490.02 1076.81 1495.57 1079.65 1500.6C1082.41 1505.66 1085.38 1509.39 1088.56 1511.78C1091.73 1514.16 1095.34 1514.39 1099.39 1512.47C1106.03 1509.31 1110.52 1504.96 1112.84 1499.42C1115.1 1493.91 1115.91 1487.9 1115.28 1481.38C1114.69 1474.92 1113.33 1468.53 1111.2 1462.19C1109 1455.88 1106.74 1450.31 1104.44 1445.47L1104.36 1444.18C1106.8 1449.31 1109.21 1455.12 1111.59 1461.61C1113.93 1468.2 1115.41 1474.85 1116.03 1481.55C1116.65 1488.26 1115.68 1494.48 1113.09 1500.23C1110.44 1506.01 1105.4 1510.67 1097.96 1514.21C1090.37 1517.82 1083.74 1519.25 1078.07 1518.5C1072.39 1517.74 1067.47 1515.31 1063.29 1511.18C1059.14 1507.13 1055.57 1501.96 1052.58 1495.68Z" fill="#B3B0AA"/>
<path d="M1221.08 1306.38C1229.1 1299.62 1237.81 1295.25 1247.24 1293.27C1256.65 1291.41 1266.01 1292.15 1275.32 1295.49C1284.68 1298.9 1293.23 1305.19 1300.97 1314.37C1308.7 1323.54 1313.49 1332.95 1315.34 1342.59C1317.18 1352.34 1316.39 1361.64 1312.96 1370.49C1309.59 1379.4 1303.9 1387.23 1295.89 1393.99C1286.78 1401.67 1277.89 1406.02 1269.23 1407.05C1260.62 1408.13 1252.59 1406.79 1245.13 1403.03C1237.61 1399.33 1231.04 1394.14 1225.42 1387.48L1293.31 1330.24L1293.62 1330.6L1245.18 1371.44C1248.16 1375.11 1251.67 1378.9 1255.71 1382.82C1259.8 1386.8 1264.13 1390.2 1268.72 1393.04C1273.29 1395.98 1277.89 1397.65 1282.51 1398.04C1287.13 1398.55 1291.48 1397.07 1295.58 1393.62C1300.11 1389.8 1302.78 1385.35 1303.62 1380.25C1304.44 1375.27 1303.9 1369.92 1302 1364.19C1300.16 1358.53 1297.44 1352.82 1293.84 1347.06C1290.18 1341.35 1286.13 1335.87 1281.7 1330.61C1277.32 1325.41 1272.6 1320.5 1267.54 1315.87C1262.47 1311.35 1257.28 1307.72 1251.94 1305C1246.6 1302.39 1241.26 1301.14 1235.91 1301.25C1230.56 1301.48 1225.37 1303.7 1220.36 1307.93C1210.81 1315.98 1205.25 1325.27 1203.68 1335.81C1202.1 1346.34 1203.37 1356.36 1207.5 1365.85L1207.14 1366.16C1202.82 1356.2 1201.51 1345.9 1203.21 1335.26C1204.91 1324.61 1210.87 1314.99 1221.08 1306.38Z" fill="#B3B0AA"/>
<path d="M1343.24 1170.94L1530.87 1221.12L1517.7 1239.88L1364 1199.43L1455.58 1328.37L1455.31 1328.77L1343.03 1171.23L1343.24 1170.94ZM1530.73 1221.31L1383.79 1118.18L1373.1 1133.4L1372.71 1133.13L1393.67 1103.27L1394.06 1103.54L1384.07 1117.78L1530.61 1220.64L1541.23 1205.52L1541.62 1205.79L1530.73 1221.31ZM1432.69 1360.98L1432.3 1360.71L1441.95 1346.95L1295.41 1244.1L1285.76 1257.85L1285.36 1257.57L1319.21 1209.34L1319.61 1209.62L1308.51 1225.43L1455.44 1328.57L1432.69 1360.98Z" fill="#B3B0AA"/>
<path d="M1482.89 995.015C1490.13 997.037 1497.02 999.419 1503.57 1002.16C1510.11 1004.9 1515.78 1008.1 1520.57 1011.77C1525.44 1015.45 1528.91 1019.7 1530.97 1024.51C1533.11 1029.34 1533.33 1034.8 1531.63 1040.89C1530.42 1045.21 1528.5 1048.66 1525.87 1051.25C1523.29 1053.93 1520.34 1055.72 1517.02 1056.62C1513.69 1057.52 1510.34 1057.5 1506.95 1056.55C1503.02 1055.45 1500.04 1053.33 1498.01 1050.19C1495.95 1047.13 1495.52 1043.48 1496.7 1039.24C1497.93 1034.85 1500.08 1031.75 1503.16 1029.95C1506.21 1028.23 1509.48 1027.86 1512.94 1028.82C1517.49 1030.09 1520.51 1032.51 1522 1036.09C1523.5 1039.66 1523.78 1043.1 1522.86 1046.42C1522.15 1048.96 1520.93 1051.07 1519.22 1052.75C1517.56 1054.53 1515.64 1055.74 1513.47 1056.38C1511.38 1057.04 1509.21 1057.06 1506.98 1056.44L1507.07 1056.09C1510.39 1057.01 1513.67 1057.02 1516.92 1056.1C1520.14 1055.25 1523.03 1053.53 1525.59 1050.92C1528.12 1048.39 1529.98 1045 1531.16 1040.76C1532.86 1034.68 1532.63 1029.25 1530.47 1024.5C1528.31 1019.74 1524.8 1015.52 1519.93 1011.84C1515.12 1008.25 1509.44 1005.09 1502.89 1002.35C1496.41 999.703 1489.69 997.414 1482.76 995.477L1482.89 995.015ZM1537.54 1010.77L1431.67 981.213L1427.8 995.083L1427.34 994.954L1440.89 946.41L1441.35 946.539L1437.45 960.525L1542.86 989.956L1546.76 975.971L1547.23 976.1L1537.54 1010.77Z" fill="#B3B0AA"/>
<path d="M1448.98 853.374C1449.72 844.043 1451.83 837.067 1455.33 832.447C1458.9 827.834 1463.47 824.823 1469.04 823.416C1474.6 822.089 1480.85 821.698 1487.79 822.245L1563.63 828.218L1564.77 813.743L1565.25 813.78L1562.42 849.669L1488.73 843.865C1482.03 843.338 1475.79 843.127 1470 843.233C1464.22 843.339 1459.49 844.291 1455.82 846.088C1452.14 847.885 1450.13 851.017 1449.78 855.483C1449.11 864.017 1450.57 870.913 1454.17 876.172C1457.76 881.51 1462.5 885.574 1468.38 888.365C1474.33 891.241 1480.59 893.259 1487.16 894.418C1493.72 895.657 1499.68 896.487 1505.02 896.908L1506.17 897.6C1500.51 897.154 1494.23 896.339 1487.34 895.155C1480.53 893.976 1474.08 891.903 1467.97 888.934C1461.86 886.046 1456.98 881.769 1453.33 876.106C1449.69 870.442 1448.24 862.865 1448.98 853.374ZM1448.31 892.442L1557.89 901.072L1559.21 884.324L1559.69 884.362L1556.67 922.763L1447.09 914.133L1445.96 928.488L1445.48 928.451L1448.31 892.442Z" fill="#B3B0AA"/>
<path d="M1443.69 731.814C1442.15 720.639 1443.44 710.61 1447.55 701.728C1451.67 692.925 1457.74 685.71 1465.77 680.085C1473.8 674.459 1482.96 670.937 1493.27 669.521C1503.57 668.105 1513.35 669.022 1522.6 672.272C1531.84 675.523 1539.64 680.831 1545.98 688.195C1552.33 695.64 1556.28 704.949 1557.82 716.124C1559.35 727.299 1558.07 737.327 1553.96 746.21C1549.85 755.092 1543.78 762.307 1535.74 767.853C1527.71 773.479 1518.54 777 1508.24 778.417C1497.93 779.833 1488.16 778.916 1478.91 775.666C1469.67 772.494 1461.88 767.186 1455.52 759.742C1449.17 752.298 1445.23 742.989 1443.69 731.814ZM1444.16 731.748C1445.06 738.247 1447.63 743.182 1451.89 746.554C1456.16 750.004 1461.33 752.323 1467.39 753.509C1473.52 754.684 1479.88 755.142 1486.47 754.882C1493.15 754.691 1499.26 754.214 1504.81 753.452C1510.43 752.678 1516.45 751.488 1522.85 749.881C1529.26 748.354 1535.22 746.201 1540.73 743.425C1546.33 740.637 1550.71 737.006 1553.89 732.531C1557.08 728.135 1558.23 722.688 1557.34 716.189C1556.45 709.69 1553.87 704.716 1549.6 701.265C1545.34 697.894 1540.14 695.62 1534 694.445C1527.94 693.259 1521.62 692.756 1515.02 692.937C1508.43 693.196 1502.33 693.713 1496.7 694.486C1491.15 695.249 1485.13 696.399 1478.64 697.938C1472.24 699.545 1466.24 701.742 1460.65 704.529C1455.14 707.306 1450.79 710.892 1447.59 715.288C1444.41 719.763 1443.27 725.25 1444.16 731.748Z" fill="#B3B0AA"/>
<path d="M1395.04 553.514L1395.49 553.337L1403.43 573.425L1483.33 541.84L1549.29 455.381L1543.07 439.646L1543.52 439.469L1569.1 504.196L1568.65 504.372L1558.99 479.933L1497.12 560.392L1595.34 571.889L1584.98 545.664L1585.42 545.487L1603.95 592.358L1603.5 592.535L1595.61 572.559L1496.85 561.015L1411.81 594.628L1420.68 617.06L1420.23 617.236L1395.04 553.514Z" fill="#B3B0AA"/>
<path d="M1239.86 432.265C1235.33 427.086 1231.5 421.727 1228.35 416.187C1225.15 410.7 1222.93 405.251 1221.71 399.84C1220.53 394.489 1220.56 389.416 1221.79 384.623C1223.07 379.889 1225.85 375.653 1230.12 371.913C1234.22 368.332 1238.47 366.263 1242.87 365.707C1247.26 365.264 1251.51 365.747 1255.61 367.155C1259.77 368.623 1263.47 370.487 1266.72 372.745C1269.96 375.117 1272.48 377.326 1274.27 379.373L1274.51 379.644C1268.45 377.822 1263.49 377.802 1259.63 379.585C1255.77 381.368 1251.7 384.129 1247.43 387.868C1243.63 391.186 1240.46 395.396 1237.91 400.498C1235.35 405.6 1234.22 411.052 1234.52 416.855C1234.81 422.657 1237.32 428.268 1242.06 433.688C1246.28 438.505 1250.89 442.385 1255.91 445.329C1260.87 448.325 1265.96 450.309 1271.16 451.281C1276.31 452.306 1281.3 452.243 1286.14 451.093C1291.03 450.002 1295.44 447.746 1299.35 444.322C1303.21 440.952 1305.45 437.02 1306.09 432.527C1306.73 428.034 1306.19 423.406 1304.47 418.642C1302.74 413.99 1300.16 409.708 1296.74 405.794C1295.64 404.529 1293.92 402.572 1291.61 399.922C1289.34 397.333 1287.05 394.714 1284.73 392.064C1282.47 389.475 1280.76 387.518 1279.6 386.193C1272.49 378.063 1267.94 370.559 1265.97 363.68C1263.99 356.801 1265.56 351.124 1270.68 346.647C1273.75 343.961 1277.11 342.456 1280.76 342.133C1284.41 341.811 1288.16 342.459 1292.02 344.077C1296 345.704 1299.95 348.094 1303.88 351.248C1307.86 354.35 1311.73 358.038 1315.47 362.314L1315.11 362.63C1313.42 360.703 1311.42 358.84 1309.1 357.04C1306.84 355.189 1304.42 353.694 1301.83 352.557C1299.24 351.42 1296.73 350.855 1294.29 350.862C1291.85 350.869 1289.64 351.742 1287.65 353.48C1284.52 356.219 1284.1 359.564 1286.39 363.515C1288.73 367.414 1292.07 371.833 1296.39 376.77C1298.23 378.878 1299.73 380.594 1300.89 381.919C1302.16 383.251 1303.35 384.55 1304.46 385.814C1305.62 387.026 1306.94 388.475 1308.42 390.161C1311.37 393.533 1313.99 397.139 1316.28 400.977C1318.58 404.816 1319.95 408.876 1320.4 413.159C1320.9 417.501 1320.03 422.035 1317.79 426.761C1315.54 431.6 1311.34 436.705 1305.2 442.077C1299.84 446.764 1294.28 449.823 1288.51 451.251C1282.74 452.793 1276.98 452.946 1271.22 451.71C1265.4 450.528 1259.83 448.227 1254.5 444.809C1249.17 441.505 1244.29 437.323 1239.86 432.265ZM1315.11 362.63C1311.89 358.956 1309.11 354.802 1306.75 350.165C1304.46 345.476 1302.97 340.614 1302.29 335.579C1301.66 330.492 1302.23 325.427 1303.98 320.385C1305.79 315.403 1309.19 310.727 1314.19 306.355C1319.19 301.984 1324.25 299.261 1329.37 298.186C1334.6 297.118 1339.66 297.258 1344.56 298.607C1349.52 299.902 1354.14 302.025 1358.42 304.976C1362.76 307.875 1366.54 311.16 1369.75 314.834C1372.97 318.507 1375.67 322.628 1377.86 327.197C1380.16 331.773 1381.57 336.544 1382.09 341.511C1382.66 346.426 1382.02 351.344 1380.16 356.265C1378.36 361.134 1374.97 365.754 1369.97 370.126C1364.97 374.497 1359.91 377.277 1354.78 378.465C1349.66 379.653 1344.67 379.659 1339.81 378.484C1335.02 377.256 1330.48 375.223 1326.19 372.385C1322.01 369.555 1318.32 366.303 1315.11 362.63ZM1315.47 362.314C1318.57 365.866 1322.43 367.598 1327.03 367.509C1331.62 367.419 1336.42 366.096 1341.41 363.538C1346.51 360.988 1351.29 357.764 1355.75 353.867C1360.2 349.97 1364 345.688 1367.15 341.023C1370.41 336.365 1372.36 331.79 1373 327.297C1373.7 322.752 1372.5 318.703 1369.39 315.15C1366.28 311.597 1362.43 309.865 1357.83 309.954C1353.3 309.991 1348.47 311.285 1343.37 313.835C1338.38 316.392 1333.66 319.62 1329.2 323.517C1324.75 327.415 1320.68 331.452 1317 335.628C1313.38 339.751 1311.16 344.025 1310.36 348.45C1309.6 352.935 1311.31 357.556 1315.47 362.314ZM1387.47 384.308C1385.52 382.08 1384.49 379.318 1384.37 376.021C1384.25 372.725 1385.67 369.786 1388.62 367.206C1391.63 364.572 1394.61 363.666 1397.56 364.487C1400.62 365.316 1403.1 366.814 1405 368.982C1406.94 371.21 1408.13 373.897 1408.54 377.042C1409.07 380.196 1408.09 382.852 1405.62 385.012L1405.47 384.831C1408.66 382.04 1410.64 378.232 1411.42 373.408C1412.25 368.644 1410.69 364.004 1406.74 359.488C1404.52 356.959 1401.44 354.712 1397.49 352.747C1393.65 350.789 1389.07 349.859 1383.73 349.956C1378.46 350 1372.58 351.79 1366.11 355.325L1365.79 354.964C1372.45 351.27 1378.49 349.435 1383.94 349.459C1389.38 349.483 1394.04 350.503 1397.93 352.521C1401.94 354.546 1404.99 356.763 1407.1 359.172C1409.68 362.123 1411.23 365.231 1411.75 368.498C1412.27 371.764 1411.94 374.861 1410.79 377.788C1409.74 380.723 1408.07 383.191 1405.78 385.192C1401.93 388.563 1398.41 389.83 1395.24 388.994C1392.06 388.158 1389.47 386.596 1387.47 384.308Z" fill="#B3B0AA"/>
<path d="M1234.14 200.067L1169.27 288.81L1180.9 297.308L1180.62 297.695L1139.93 267.955L1140.21 267.567L1151.93 276.135L1216.51 187.78L1204.79 179.212L1205.07 178.824L1234.14 200.067ZM1273.36 270.653L1228.47 332.075L1240.09 340.573L1239.81 340.96L1199.12 311.22L1199.4 310.832L1210.93 319.259L1254.27 259.968C1258.23 254.542 1261.69 249.339 1264.64 244.359C1267.58 239.378 1269.26 234.853 1269.65 230.784C1270.12 226.762 1268.54 223.429 1264.92 220.785C1258.01 215.734 1251.34 213.336 1244.91 213.592C1238.55 213.894 1232.58 215.824 1227.01 219.381C1221.48 222.873 1216.47 227.087 1211.97 232.023C1207.53 237.006 1203.73 241.662 1200.57 245.989L1199.48 246.675C1202.83 242.089 1206.79 237.208 1211.37 232.031C1215.99 226.789 1221.14 222.326 1226.8 218.639C1232.54 215 1238.77 213.115 1245.5 212.984C1252.3 212.9 1259.51 215.644 1267.13 221.214C1274.69 226.737 1279.52 232.198 1281.62 237.597C1283.78 243.042 1283.94 248.513 1282.11 254.008C1280.38 259.485 1277.47 265.034 1273.36 270.653Z" fill="#B3B0AA"/>
<path d="M1166.88 111.638C1163.37 109.887 1160.95 107.116 1159.63 103.324C1158.41 99.4966 1158.67 95.8293 1160.42 92.3221C1162.21 88.7433 1164.98 86.3266 1168.74 85.0721C1172.57 83.8533 1176.23 84.1194 1179.74 85.8703C1183.32 87.657 1185.74 90.4282 1186.99 94.184C1188.24 97.9399 1187.98 101.607 1186.19 105.186C1184.44 108.693 1181.67 111.11 1177.88 112.436C1174.12 113.69 1170.46 113.424 1166.88 111.638ZM1157.14 155.059L1108.04 253.405L1120.92 259.837L1120.71 260.266L1075.62 237.755L1075.83 237.325L1088.71 243.757L1137.6 145.841L1124.71 139.409L1124.93 138.979L1157.14 155.059Z" fill="#B3B0AA"/>
<path d="M1025.45 162.006C1027.83 154.874 1030.56 148.109 1033.62 141.712C1036.69 135.314 1040.17 129.815 1044.07 125.214C1048 120.538 1052.42 117.291 1057.33 115.474C1062.26 113.582 1067.73 113.637 1073.72 115.641C1077.97 117.062 1081.32 119.152 1083.77 121.912C1086.32 124.621 1087.96 127.659 1088.69 131.024C1089.42 134.389 1089.23 137.741 1088.12 141.079C1086.82 144.949 1084.56 147.818 1081.32 149.687C1078.15 151.582 1074.48 151.831 1070.31 150.436C1065.99 148.99 1063 146.685 1061.36 143.521C1059.8 140.383 1059.58 137.106 1060.72 133.692C1062.22 129.216 1064.79 126.322 1068.44 125.009C1072.08 123.697 1075.53 123.587 1078.8 124.678C1081.3 125.515 1083.35 126.832 1084.94 128.63C1086.63 130.377 1087.74 132.351 1088.27 134.553C1088.83 136.678 1088.74 138.841 1088 141.041L1087.66 140.927C1088.75 137.665 1088.92 134.389 1088.16 131.099C1087.48 127.835 1085.9 124.861 1083.43 122.177C1081.03 119.519 1077.74 117.492 1073.57 116.097C1067.57 114.092 1062.15 114.049 1057.29 115.968C1052.43 117.886 1048.04 121.183 1044.11 125.86C1040.29 130.486 1036.84 135.997 1033.77 142.395C1030.81 148.742 1028.18 155.33 1025.9 162.158L1025.45 162.006ZM1043.94 108.214L1009.08 212.461L1022.74 217.027L1022.59 217.482L974.787 201.5L974.939 201.045L988.71 205.649L1023.41 101.858L1009.64 97.2532L1009.8 96.798L1043.94 108.214Z" fill="#B3B0AA"/>
<path d="M817.539 178.738L817.596 178.262L888.972 186.758C895.804 187.571 902.374 186.178 908.684 182.578C915.003 178.899 920.355 173.534 924.739 166.483C929.203 159.441 931.997 151.194 933.122 141.741C934.247 132.287 933.387 124.29 930.54 117.747C927.773 111.214 923.665 106.133 918.216 102.504C912.776 98.7946 906.64 96.5335 899.808 95.7203L871.329 92.3304L871.386 91.8538L902.367 95.5416C913.568 96.8748 923.695 99.4498 932.747 103.267C941.8 107.083 948.782 112.386 953.694 119.174C958.606 125.962 960.447 134.52 959.218 144.847C957.09 162.721 950.042 174.893 938.074 181.364C926.194 187.764 910.642 189.82 891.417 187.532L817.539 178.738ZM838.897 181.039L860.116 2.77722L882.875 5.48632L861.656 183.748L838.897 181.039ZM871.329 92.3304L871.386 91.8538L897.601 94.9742C903.638 95.6929 909.523 94.9835 915.256 92.8461C921.068 90.7182 926.032 86.9183 930.148 81.4464C934.353 75.9045 937.017 68.4069 938.143 58.9537C939.268 49.5004 938.489 41.1498 935.807 33.902C933.214 26.5842 929.399 20.7322 924.362 16.3461C919.405 11.9695 913.907 9.42188 907.87 8.70323L838.758 0.476643L838.815 0L907.927 8.22659C925.959 10.3731 939.962 15.5846 949.933 23.8613C959.994 32.0679 964.102 43.9166 962.258 59.4072C960.414 74.8979 953.971 85.3698 942.929 90.8228C931.897 96.1965 916.768 97.7392 897.544 95.4509L871.329 92.3304Z" fill="#B3B0AA"/>
</svg>
