<svg width="893" height="896" viewBox="0 0 893 896" fill="none" xmlns="http://www.w3.org/2000/svg">
<path d="M405.615 59.6059C402.903 59.866 400.272 59.4025 397.722 58.2155C395.172 57.0284 393.01 55.1763 391.237 52.659C389.488 50.1394 388.435 47.0132 388.077 43.2803C387.719 39.5474 388.159 36.278 389.397 33.472C390.657 30.6388 392.427 28.3972 394.704 26.7473C396.98 25.0724 399.474 24.105 402.187 23.8449C405.521 23.5252 408.303 24.5141 410.533 26.8118C412.787 29.1072 414.332 32.5128 415.167 37.0287L411.809 2.0143L407.33 2.44379L407.312 2.25715L418.548 1.17983L423.899 56.9864L428.378 56.5569L428.396 56.7435L417.16 57.8209L415.861 44.2705C415.9 48.8628 415.029 52.4874 413.249 55.1444C411.495 57.799 408.95 59.2862 405.615 59.6059ZM406.682 58.9386C408.623 58.7525 410.328 57.936 411.796 56.4893C413.265 55.0425 414.337 52.9933 415.012 50.3418C415.712 47.6879 415.879 44.4572 415.514 40.6496C415.149 36.8421 414.371 33.702 413.179 31.2294C412.01 28.7296 410.567 26.909 408.851 25.7676C407.131 24.6014 405.301 24.1113 403.36 24.2975C401.27 24.4979 399.625 25.4216 398.427 27.0684C397.226 28.6904 396.428 30.839 396.031 33.514C395.635 36.1891 395.597 39.194 395.916 42.5287C396.236 45.8634 396.845 48.8062 397.742 51.3572C398.637 53.8833 399.829 55.8285 401.316 57.1928C402.803 58.5571 404.591 59.139 406.682 58.9386Z" fill="#B3B0AA"/>
<path d="M364.55 48.3913C364.097 46.0854 363.793 43.8267 363.639 41.6149C363.484 39.4032 363.579 37.359 363.924 35.4823C364.293 33.6008 365.004 32.0342 366.057 30.7825C367.106 29.5062 368.599 28.6776 370.537 28.2967C371.91 28.0266 373.143 28.0772 374.235 28.4485C375.347 28.7905 376.262 29.3622 376.98 30.1638C377.698 30.9653 378.164 31.9057 378.376 32.9851C378.622 34.2361 378.449 35.3657 377.857 36.3737C377.29 37.377 376.332 38.0112 374.983 38.2765C373.585 38.5513 372.418 38.3857 371.484 37.7796C370.574 37.1686 370.01 36.3112 369.793 35.2074C369.509 33.7601 369.76 32.5768 370.548 31.6577C371.335 30.7385 372.256 30.1752 373.311 29.9679C374.121 29.8087 374.88 29.8504 375.591 30.093C376.32 30.3062 376.927 30.671 377.411 31.1874C377.89 31.6793 378.199 32.2809 378.339 32.9923L378.192 33.0212C377.984 31.9664 377.527 31.0628 376.818 30.3103C376.129 29.5285 375.254 28.9618 374.191 28.6102C373.128 28.2586 371.922 28.2154 370.573 28.4806C368.659 28.8568 367.191 29.6806 366.167 30.952C365.143 32.2234 364.459 33.7974 364.114 35.6741C363.765 37.5263 363.668 39.5582 363.822 41.77C363.972 43.9572 364.264 46.1546 364.698 48.3624L364.55 48.3913ZM361.262 30.8844L367.881 64.5525L372.333 63.6772L372.369 63.8612L356.878 66.9066L356.842 66.7226L361.331 65.8401L354.748 32.356L350.259 33.2385L350.223 33.0545L361.262 30.8844Z" fill="#B3B0AA"/>
<path d="M347.97 69.9618C346.842 70.2918 345.729 70.4482 344.63 70.4311C343.538 70.438 342.538 70.0923 341.63 69.394C340.747 68.6888 340.056 67.4843 339.557 65.7807L334.724 49.2607C334.219 47.5331 333.578 45.8322 332.802 44.1578C332.042 42.4524 331.038 41.1572 329.789 40.2723C328.558 39.3563 326.982 39.1791 325.062 39.7407C323.743 40.1267 322.472 40.6808 321.251 41.4028C320.029 42.1248 318.955 42.9472 318.026 43.8699C317.122 44.7857 316.46 45.7737 316.041 46.8341C315.639 47.8634 315.592 48.9059 315.901 49.9617L315.793 49.9933C315.435 48.7696 315.55 47.694 316.139 46.7665C316.744 45.808 317.526 45.1884 318.486 44.9076C319.518 44.6057 320.552 44.6679 321.588 45.094C322.642 45.4891 323.347 46.2986 323.705 47.5223C324.126 48.9619 323.988 50.1355 323.29 51.0431C322.615 51.9437 321.786 52.5379 320.803 52.8257C319.699 53.1486 318.665 53.0864 317.701 52.6392C316.76 52.185 316.1 51.31 315.721 50.0143C315.391 48.8866 315.445 47.7771 315.881 46.6857C316.334 45.5633 317.069 44.5147 318.086 43.5399C319.12 42.534 320.356 41.6385 321.793 40.8533C323.224 40.0442 324.755 39.4009 326.386 38.9236C329.697 37.9548 332.325 37.8112 334.27 38.4926C336.238 39.167 337.738 40.3302 338.768 41.9824C339.823 43.6275 340.634 45.4218 341.203 47.3654L346.646 65.9729C346.899 66.8367 347.288 67.5434 347.814 68.0929C348.356 68.6115 349.143 68.7199 350.175 68.418C351.015 68.1723 351.823 67.5061 352.599 66.4195C353.368 65.3089 353.852 63.982 354.052 62.4388L354.202 62.5512C354.021 64.2453 353.374 65.7759 352.263 67.1428C351.177 68.5027 349.745 69.4424 347.97 69.9618ZM331.378 74.816C328.258 75.7285 325.531 75.6668 323.197 74.6307C320.879 73.5636 319.32 71.6624 318.519 68.927C317.579 65.7118 318.203 62.8593 320.392 60.3695C322.598 57.8487 326.256 55.8407 331.367 54.3455L339.177 52.0605L339.23 52.2405L331.42 54.5254C329.308 55.1432 327.791 56.1469 326.87 57.5367C325.972 58.9194 325.473 60.4198 325.373 62.0379C325.298 63.649 325.453 65.1143 325.839 66.434C326.19 67.6337 326.699 68.8393 327.366 70.0508C328.033 71.2622 328.86 72.2185 329.846 72.9197C330.826 73.5969 331.939 73.753 333.187 73.388C334.627 72.9668 335.82 72.1488 336.767 70.934C337.707 69.6953 338.26 68.0228 338.425 65.9167C338.59 63.8105 338.227 61.2338 337.336 58.1866L337.516 58.1339C338.316 60.8693 338.682 63.367 338.614 65.627C338.546 67.8871 337.936 69.8106 336.785 71.3975C335.628 72.9605 333.825 74.1 331.378 74.816Z" fill="#B3B0AA"/>
<path d="M298.906 86.4473C295.641 87.7753 292.505 88.1602 289.498 87.6019C286.514 87.0342 283.86 85.752 281.537 83.7552C279.213 81.7584 277.439 79.2548 276.215 76.2443C274.991 73.2338 274.513 70.2027 274.784 67.151C275.054 64.0994 276.059 61.329 277.8 58.8398C279.563 56.3413 282.078 54.428 285.343 53.0999C288.608 51.7719 291.744 51.387 294.751 51.9453C297.758 52.5036 300.412 53.7858 302.712 55.792C305.036 57.7888 306.809 60.2924 308.034 63.3029C309.258 66.3134 309.735 69.3445 309.465 72.3962C309.218 75.4384 308.213 78.2088 306.449 80.7074C304.686 83.2059 302.171 85.1192 298.906 86.4473ZM298.835 86.2736C300.734 85.5013 302.03 84.3401 302.722 82.7902C303.437 81.2308 303.74 79.4881 303.632 77.5621C303.523 75.6361 303.175 73.686 302.588 71.7117C302.015 69.7048 301.399 67.8909 300.739 66.2698C300.07 64.6256 299.246 62.8964 298.265 61.0822C297.307 59.2586 296.195 57.6193 294.929 56.1643C293.662 54.7092 292.229 53.6729 290.628 53.0555C289.051 52.4286 287.313 52.5013 285.414 53.2736C283.515 54.046 282.208 55.2118 281.492 56.7712C280.8 58.3211 280.509 60.0591 280.617 61.9851C280.726 63.9111 281.062 65.8659 281.626 67.8496C282.213 69.8239 282.841 71.6332 283.51 73.2774C284.169 74.8984 284.982 76.6323 285.949 78.4791C286.93 80.2933 288.054 81.9279 289.32 83.3829C290.587 84.838 292.009 85.879 293.586 86.5059C295.187 87.1233 296.936 87.0459 298.835 86.2736Z" fill="#B3B0AA"/>
<path d="M238.271 115.896L238.181 115.732L257.888 104.954C259.775 103.922 261.195 102.377 262.148 100.317C263.09 98.2345 263.485 95.9096 263.335 93.3419C263.194 90.7403 262.41 88.1344 260.983 85.5243C259.555 82.9141 257.886 81.0344 255.976 79.8853C254.087 78.7241 252.12 78.1756 250.075 78.2397C248.03 78.3038 246.064 78.8516 244.178 79.8832L236.314 84.1835L236.224 84.019L244.779 79.3409C247.872 77.6495 250.916 76.469 253.912 75.7993C256.908 75.1296 259.647 75.2134 262.128 76.0507C264.609 76.888 266.629 78.7323 268.188 81.5838C270.887 86.519 271.3 90.8951 269.427 94.712C267.563 98.4949 263.977 101.838 258.669 104.741L238.271 115.896ZM244.124 112.61L217.206 63.3894L223.491 59.9527L250.408 109.173L244.124 112.61ZM236.296 84.1507L236.206 83.9861L243.445 80.0277C245.112 79.116 246.487 77.8795 247.571 76.318C248.664 74.7227 249.239 72.8555 249.295 70.7166C249.36 68.5437 248.679 66.1522 247.252 63.542C245.824 60.9318 244.112 58.9475 242.115 57.5889C240.141 56.2184 238.115 55.4315 236.037 55.2282C233.96 55.025 232.099 55.3732 230.454 56.2729L211.371 66.7088L211.281 66.5443L230.364 56.1084C235.343 53.3854 239.852 52.1734 243.89 52.4722C247.939 52.7371 251.133 55.0082 253.472 59.2854C255.811 63.5626 256.07 67.3961 254.248 70.786C252.414 74.1539 248.843 77.2893 243.535 80.1922L236.296 84.1507Z" fill="#B3B0AA"/>
<path d="M208.685 138.186C206.093 140.189 203.314 141.437 200.345 141.93C197.382 142.388 194.469 142.032 191.607 140.863C188.729 139.675 186.144 137.597 183.851 134.63C181.557 131.663 180.186 128.662 179.738 125.628C179.293 122.559 179.664 119.666 180.85 116.949C182.02 114.212 183.901 111.842 186.493 109.839C189.44 107.561 192.262 106.328 194.96 106.139C197.662 105.915 200.152 106.439 202.431 107.711C204.729 108.968 206.712 110.674 208.378 112.83L186.451 129.777L186.336 129.628L201.973 117.544C201.091 116.361 200.045 115.131 198.837 113.853C197.628 112.576 196.327 111.465 194.933 110.52C193.559 109.559 192.163 108.979 190.745 108.78C189.312 108.561 187.932 108.963 186.607 109.987C185.143 111.119 184.248 112.474 183.921 114.054C183.598 115.599 183.687 117.268 184.188 119.061C184.689 120.854 185.463 122.673 186.51 124.518C187.576 126.348 188.767 128.113 190.082 129.814C191.381 131.496 192.789 133.093 194.306 134.606C195.828 136.084 197.395 137.274 199.008 138.176C200.641 139.063 202.293 139.524 203.964 139.56C205.639 139.56 207.288 138.934 208.91 137.68C211.976 135.311 213.823 132.509 214.451 129.274C215.084 126.005 214.826 122.871 213.678 119.872L213.826 119.757C215.042 122.925 215.314 126.159 214.642 129.459C213.974 132.724 211.988 135.633 208.685 138.186Z" fill="#B3B0AA"/>
<path d="M161.611 178.977L161.482 178.841L164.789 175.68L126.177 135.292L122.87 138.453L122.741 138.317L130.9 130.518L169.641 171.041L172.893 167.931L173.023 168.067L161.611 178.977ZM178.173 163.143L178.043 163.008L181.296 159.898L165.463 143.336C163.995 141.8 162.584 140.451 161.231 139.289C159.878 138.127 158.586 137.373 157.356 137.027C156.144 136.664 155.032 136.966 154.02 137.934C152.087 139.782 150.992 141.694 150.735 143.668C150.479 145.643 150.727 147.585 151.479 149.494C152.25 151.385 153.271 153.159 154.542 154.814C155.832 156.452 157.055 157.876 158.213 159.087L158.336 159.488C157.11 158.205 155.826 156.717 154.485 155.025C153.144 153.297 152.063 151.461 151.24 149.515C150.436 147.552 150.198 145.53 150.528 143.451C150.876 141.355 152.116 139.288 154.248 137.249C156.362 135.228 158.307 134.043 160.083 133.694C161.878 133.327 163.569 133.577 165.159 134.444C166.731 135.293 168.269 136.503 169.772 138.076L186.175 155.234L189.455 152.098L189.585 152.234L178.173 163.143Z" fill="#B3B0AA"/>
<path d="M135.892 209.583L135.747 209.463L140.991 203.095L97.857 167.578L93.0896 173.368C91.6753 175.085 90.8434 176.764 90.5938 178.405C90.3407 180.01 90.531 181.608 91.1646 183.198C91.7981 184.788 92.795 186.37 94.155 187.944C95.5117 189.482 97.1068 191.005 98.9402 192.515L98.8211 192.66L85.7939 181.933L114.183 147.455L127.211 158.181L127.068 158.355C125.234 156.845 123.425 155.582 121.639 154.565C119.85 153.513 118.114 152.828 116.431 152.512C114.749 152.195 113.129 152.334 111.57 152.929C110.008 153.489 108.536 154.609 107.153 156.288L102.386 162.078L145.52 197.594L150.764 191.225L150.909 191.345L135.892 209.583Z" fill="#B3B0AA"/>
<path d="M108.595 252.096C106.825 255.145 104.58 257.368 101.86 258.766C99.1523 260.142 96.2688 260.751 93.2093 260.594C90.1498 260.436 87.2148 259.541 84.4044 257.908C81.594 256.276 79.3621 254.17 77.7088 251.591C76.0555 249.012 75.1558 246.206 75.0096 243.172C74.876 240.116 75.6944 237.065 77.4647 234.016C79.235 230.968 81.4802 228.745 84.2003 227.347C86.9203 225.949 89.8038 225.34 92.8508 225.519C95.9103 225.677 98.8453 226.572 101.656 228.204C104.466 229.837 106.698 231.942 108.351 234.522C110.017 237.079 110.917 239.886 111.05 242.941C111.184 245.996 110.366 249.048 108.595 252.096ZM108.433 252.002C109.463 250.229 109.777 248.518 109.376 246.869C108.988 245.198 108.162 243.634 106.897 242.177C105.633 240.72 104.165 239.39 102.493 238.188C100.811 236.951 99.214 235.893 97.7007 235.014C96.1658 234.123 94.4555 233.26 92.5697 232.425C90.6966 231.568 88.814 230.952 86.9219 230.576C85.0299 230.2 83.262 230.257 81.6181 230.748C79.9868 231.217 78.6564 232.338 77.6269 234.111C76.5973 235.883 76.2767 237.605 76.665 239.276C77.0658 240.926 77.8984 242.479 79.1626 243.936C80.4269 245.393 81.8889 246.733 83.5486 247.958C85.2209 249.16 86.8245 250.207 88.3594 251.098C89.8727 251.977 91.5767 252.851 93.4715 253.721C95.3572 254.556 97.2461 255.161 99.1381 255.537C101.03 255.913 102.792 255.867 104.423 255.398C106.067 254.907 107.404 253.775 108.433 252.002Z" fill="#B3B0AA"/>
<path d="M82.3548 304.066L82.1828 303.991L85.4741 296.426L34.2381 274.135L31.246 281.013C30.3584 283.053 30.02 284.896 30.231 286.542C30.4289 288.155 31.0511 289.638 32.0974 290.993C33.1438 292.348 34.537 293.595 36.2772 294.734C38.0044 295.84 39.9569 296.866 42.1347 297.814L42.0599 297.986L26.586 291.254L44.4038 250.299L59.8778 257.031L59.788 257.238C57.6102 256.29 55.523 255.573 53.5265 255.086C51.5171 254.566 49.66 254.385 47.9554 254.544C46.2509 254.702 44.7311 255.281 43.3961 256.281C42.0482 257.249 40.9404 258.73 40.0727 260.724L37.0806 267.602L88.3166 289.893L91.6079 282.328L91.7798 282.402L82.3548 304.066Z" fill="#B3B0AA"/>
<path d="M65.7712 359.972L55.6217 357.282L55.6698 357.1C57.4708 357.526 59.2895 357.349 61.1258 356.568C62.9444 355.757 64.5473 354.54 65.9347 352.916C67.3285 351.268 68.3009 349.405 68.8518 347.327C69.2362 345.877 69.3902 344.418 69.314 342.949C69.2442 341.456 68.8292 340.144 68.069 339.011C67.2847 337.872 66.0468 337.078 64.3552 336.63C62.8086 336.22 61.469 336.395 60.3364 337.155C59.1861 337.885 58.1369 338.965 57.1888 340.394C56.2166 341.818 55.243 343.344 54.2679 344.974C53.2686 346.597 52.1741 348.091 50.9844 349.457C49.777 350.792 48.3774 351.779 46.7856 352.418C45.1697 353.05 43.2381 353.068 40.9907 352.472C39.4441 352.062 38.0299 351.299 36.748 350.183C35.4483 349.037 34.5138 347.587 33.9443 345.832C33.3507 344.071 33.3582 342.043 33.9668 339.747C34.4281 338.007 35.1408 336.489 36.1052 335.193C37.0695 333.897 38.1606 332.854 39.3785 332.065L37.0173 327.947L37.0653 327.766L47.2148 330.457L47.1667 330.638C45.5896 330.246 43.9173 330.359 42.15 330.976C40.365 331.563 38.7432 332.608 37.2848 334.109C35.8022 335.604 34.763 337.475 34.1673 339.723C33.7957 341.124 33.6769 342.451 33.8108 343.702C33.9269 344.922 34.3093 345.968 34.9579 346.838C35.6066 347.708 36.523 348.3 37.7071 348.614C39.157 348.999 40.4547 348.786 41.6001 347.978C42.7213 347.163 43.8018 346.014 44.8416 344.531C45.8877 343.024 46.9442 341.429 48.0111 339.746C49.0843 338.039 50.2616 336.476 51.543 335.057C52.8002 333.631 54.2311 332.575 55.8357 331.889C57.4467 331.178 59.3275 331.107 61.4782 331.677C63.6289 332.248 65.3938 333.297 66.773 334.827C68.1279 336.35 69.0268 338.179 69.4696 340.314C69.9187 342.424 69.8358 344.639 69.2209 346.959C68.734 348.796 67.9739 350.443 66.9405 351.902C65.9072 353.361 64.7108 354.557 63.3514 355.49L65.8192 359.791L65.7712 359.972Z" fill="#B3B0AA"/>
<path d="M61.748 380.854C61.1976 384.082 59.9974 386.883 58.1472 389.256C56.2767 391.6 53.8927 393.311 50.9952 394.389C48.0731 395.463 44.7638 395.685 41.0671 395.055C37.3704 394.425 34.3297 393.145 31.9448 391.217C29.5396 389.26 27.853 386.88 26.8853 384.078C25.8929 381.271 25.6719 378.254 26.2223 375.025C26.8484 371.353 28.0898 368.534 29.9466 366.568C31.783 364.573 33.9702 363.273 36.5084 362.666C39.0507 362.034 41.665 361.947 44.3512 362.405L39.6936 389.723L39.5088 389.692L42.8303 370.21C41.3804 369.938 39.7783 369.741 38.0238 369.619C36.2692 369.498 34.5592 369.561 32.8938 369.81C31.2325 370.034 29.8126 370.552 28.6341 371.366C27.431 372.175 26.6887 373.405 26.4071 375.057C26.0962 376.88 26.3553 378.484 27.1845 379.868C27.9933 381.223 29.189 382.391 30.7719 383.371C32.3547 384.351 34.1559 385.165 36.1756 385.814C38.1996 386.438 40.2712 386.931 42.3906 387.292C44.4854 387.649 46.6033 387.871 48.7443 387.957C50.8648 388.014 52.8239 387.828 54.6216 387.399C56.4235 386.946 57.9512 386.166 59.2047 385.061C60.4378 383.927 61.2267 382.35 61.5712 380.329C62.2225 376.509 61.6841 373.197 59.956 370.391C58.2074 367.557 55.8953 365.426 53.0195 363.997L53.051 363.812C56.0909 365.319 58.4809 367.515 60.221 370.398C61.9407 373.253 62.4497 376.738 61.748 380.854Z" fill="#B3B0AA"/>
<path d="M8.98326 408.411C8.8715 409.631 8.33889 410.649 7.38542 411.466C6.40935 412.255 5.31136 412.594 4.09147 412.482C2.84668 412.368 1.82853 411.835 1.03701 410.884C0.247772 409.908 -0.0909678 408.81 0.020795 407.59C0.134839 406.345 0.667452 405.327 1.61864 404.536C2.56982 403.744 3.6678 403.406 4.91258 403.52C6.13248 403.631 7.15063 404.164 7.96705 405.117C8.75857 406.069 9.0973 407.167 8.98326 408.411ZM22.7315 406.319L56.9009 409.45L57.3114 404.969L57.4981 404.986L56.0578 420.707L55.871 420.69L56.285 416.172L22.3023 413.058L21.8884 417.577L21.7016 417.56L22.7315 406.319Z" fill="#B3B0AA"/>
<path d="M38.5512 442.137C36.2017 442.087 33.9302 441.9 31.7366 441.578C29.543 441.256 27.5665 440.726 25.8069 439.988C24.0479 439.225 22.6698 438.195 21.6724 436.898C20.6501 435.601 20.1601 433.965 20.2026 431.99C20.2327 430.591 20.5459 429.397 21.1423 428.41C21.7142 427.397 22.4685 426.625 23.4051 426.095C24.3417 425.565 25.3599 425.312 26.4596 425.336C27.7343 425.363 28.8007 425.774 29.6589 426.567C30.5175 427.336 30.9321 428.408 30.9025 429.782C30.8719 431.207 30.4606 432.311 29.6685 433.094C28.8771 433.852 27.919 434.219 26.7942 434.195C25.3196 434.163 24.2175 433.665 23.4881 432.699C22.7587 431.733 22.4056 430.712 22.4287 429.638C22.4464 428.813 22.6497 428.08 23.0386 427.438C23.4031 426.77 23.8892 426.256 24.4972 425.894C25.0801 425.531 25.734 425.358 26.4588 425.373L26.4556 425.523C25.3808 425.5 24.4001 425.754 23.5135 426.285C22.6024 426.791 21.8615 427.525 21.2906 428.488C20.7198 429.451 20.4196 430.62 20.39 431.994C20.3481 433.944 20.8386 435.555 21.8615 436.827C22.8844 438.099 24.2756 439.105 26.0351 439.843C27.7697 440.58 29.7337 441.11 31.9273 441.432C34.0959 441.754 36.3049 441.939 38.5544 441.987L38.5512 442.137ZM20.746 441.604L55.0506 442.342L55.1481 437.806L55.3356 437.81L54.9961 453.593L54.8087 453.589L54.9071 449.015L20.7899 448.282L20.6916 452.856L20.5041 452.852L20.746 441.604Z" fill="#B3B0AA"/>
<path d="M57.0093 476.421C57.2649 479.937 56.6632 483.039 55.2042 485.727C53.7434 488.39 51.7049 490.518 49.0885 492.112C46.4722 493.706 43.5433 494.62 40.3019 494.856C37.0604 495.092 34.03 494.61 31.2107 493.411C28.3914 492.213 26.0664 490.401 24.2359 487.978C22.4036 485.529 21.3596 482.547 21.104 479.031C20.8485 475.516 21.4502 472.414 22.9091 469.726C24.3681 467.038 26.4067 464.91 29.0248 463.341C31.6411 461.747 34.57 460.832 37.8115 460.596C41.0529 460.361 44.0833 460.842 46.9026 462.041C49.7201 463.215 52.0451 465.026 53.8774 467.475C55.7098 469.923 56.7537 472.906 57.0093 476.421ZM56.8223 476.435C56.6737 474.39 55.969 472.8 54.7083 471.663C53.4457 470.502 51.8817 469.675 50.0162 469.184C48.1507 468.693 46.1884 468.422 44.1293 468.371C42.0434 468.297 40.1278 468.324 38.3824 468.451C36.6121 468.579 34.7128 468.83 32.6845 469.203C30.6544 469.551 28.7519 470.103 26.977 470.859C25.2021 471.615 23.774 472.658 22.6927 473.99C21.6096 475.297 21.1424 476.973 21.291 479.018C21.4397 481.062 22.1452 482.665 23.4078 483.827C24.6685 484.963 26.2316 485.777 28.0971 486.268C29.9626 486.759 31.9259 487.043 33.9868 487.119C36.0459 487.169 37.9606 487.131 39.7309 487.002C41.4763 486.875 43.3765 486.637 45.4316 486.287C47.4599 485.914 49.3615 485.349 51.1363 484.594C52.9112 483.838 54.3402 482.807 55.4233 481.5C56.5046 480.168 56.9709 478.479 56.8223 476.435Z" fill="#B3B0AA"/>
<path d="M33.5092 553.064L67.0966 546.047L66.1687 541.606L66.3523 541.568L69.5807 557.021L69.3971 557.06L68.4616 552.581L35.0577 559.56L35.9932 564.038L35.8097 564.076L33.5092 553.064ZM39.4821 529.942L62.718 525.087L61.7901 520.646L61.9737 520.607L65.202 536.061L65.0185 536.1L64.0906 531.658L41.6623 536.343C39.6067 536.773 37.7229 537.23 36.0109 537.716C34.2745 538.206 32.9293 538.857 31.9753 539.67C31.0161 540.457 30.6771 541.524 30.9582 542.87C31.4286 545.122 32.4187 546.805 33.9285 547.92C35.4333 549.01 37.1897 549.716 39.1978 550.037C41.2008 550.333 43.2435 550.392 45.3257 550.212C47.408 550.033 49.269 549.772 50.9086 549.429L51.3063 549.499C49.5688 549.862 47.6273 550.166 45.4819 550.41C43.3068 550.634 41.176 550.581 39.0893 550.251C37.0027 549.921 35.182 549.152 33.6272 547.944C32.0673 546.712 31.0241 544.836 30.4975 542.315C29.9607 539.746 30.0162 537.627 30.6638 535.959C31.3115 534.292 32.4183 532.988 33.9841 532.048C35.5204 531.088 37.353 530.386 39.4821 529.942ZM35.1111 509.018L58.347 504.164L57.4268 499.759L57.6104 499.721L60.8387 515.175L60.6552 515.213L59.7273 510.771L37.299 515.457C35.2434 515.886 33.3596 516.344 31.6477 516.829C29.9113 517.319 28.5635 517.959 27.6043 518.746C26.6451 519.534 26.3087 520.613 26.595 521.984C27.0602 524.211 28.0477 525.881 29.5576 526.996C31.0623 528.087 32.8162 528.78 34.8192 529.077C36.8222 529.373 38.8648 529.432 40.9471 529.252C43.0294 529.073 44.8903 528.812 46.5299 528.469L46.9277 528.539C45.1902 528.902 43.2487 529.206 41.1032 529.45C38.9282 529.674 36.7999 529.633 34.7184 529.328C32.6318 528.997 30.811 528.228 29.2563 527.021C27.6964 525.789 26.6531 523.912 26.1266 521.392C25.5898 518.822 25.6478 516.716 26.3006 515.073C26.9482 513.405 28.0524 512.089 29.6132 511.124C31.1494 510.165 32.9821 509.463 35.1111 509.018Z" fill="#B3B0AA"/>
<path d="M77.2936 575.098C78.3728 578.19 78.6763 581.221 78.2042 584.193C77.7001 587.149 76.4407 589.8 74.4259 592.145C72.3875 594.498 69.598 596.292 66.0574 597.528C62.5169 598.764 59.2366 599.114 56.2168 598.579C53.165 598.029 50.5381 596.762 48.3359 594.776C46.1102 592.799 44.4577 590.265 43.3785 587.173C42.151 583.656 41.8747 580.588 42.5495 577.969C43.1924 575.335 44.478 573.139 46.4062 571.381C48.3261 569.598 50.5725 568.258 53.1453 567.36L62.2772 593.525L62.1002 593.587L55.588 574.928C54.1871 575.391 52.6894 575.993 51.0948 576.735C49.5002 577.476 48.0341 578.359 46.6965 579.382C45.3506 580.381 44.3585 581.522 43.7203 582.804C43.0585 584.094 43.0036 585.53 43.5555 587.111C44.1651 588.858 45.1674 590.136 46.5625 590.947C47.9256 591.742 49.5369 592.186 51.3962 592.278C53.2555 592.371 55.226 592.213 57.3075 591.804C59.3809 591.372 61.4325 590.801 63.4624 590.093C65.4687 589.393 67.4297 588.562 69.3454 587.603C71.2293 586.627 72.8543 585.517 74.2204 584.273C75.5783 583.004 76.5388 581.584 77.1017 580.01C77.6329 578.421 77.5607 576.659 76.8852 574.724C75.6083 571.065 73.5353 568.426 70.6662 566.806C67.7652 565.17 64.7107 564.423 61.5027 564.563L61.4409 564.386C64.8306 564.235 67.9842 565.001 70.9016 566.684C73.7872 568.351 75.9179 571.156 77.2936 575.098Z" fill="#B3B0AA"/>
<path d="M99.7768 627.55L58.2575 671.821L55.0343 665.424L88.847 629.027L39.8293 635.251L39.7281 635.051L99.6924 627.383L99.7768 627.55ZM58.2069 671.72L108.272 646.491L105.656 641.3L105.824 641.216L110.971 651.43L110.803 651.514L108.356 646.659L58.4587 671.803L61.0576 676.96L60.8901 677.045L58.2069 671.72ZM34.2097 624.1L34.3772 624.016L36.7398 628.704L86.6373 603.559L84.2747 598.871L84.4421 598.786L92.7281 615.229L92.5606 615.314L89.8436 609.922L39.7787 635.151L34.2097 624.1Z" fill="#B3B0AA"/>
<path d="M120.307 692.788C118.417 694.186 116.507 695.428 114.575 696.516C112.643 697.603 110.755 698.394 108.912 698.887C107.054 699.36 105.333 699.388 103.751 698.973C102.149 698.573 100.76 697.579 99.5852 695.991C98.7525 694.866 98.2699 693.73 98.1374 692.584C97.9698 691.433 98.0943 690.361 98.5108 689.369C98.9272 688.377 99.5776 687.553 100.462 686.899C101.487 686.141 102.581 685.813 103.746 685.915C104.895 685.998 105.879 686.592 106.697 687.697C107.544 688.842 107.895 689.967 107.747 691.071C107.585 692.155 107.052 693.032 106.148 693.701C104.962 694.578 103.785 694.858 102.617 694.541C101.449 694.223 100.546 693.632 99.9062 692.768C99.4155 692.105 99.1276 691.4 99.0424 690.655C98.9223 689.904 98.9919 689.199 99.2512 688.541C99.4903 687.898 99.9013 687.36 100.484 686.929L100.573 687.05C99.7092 687.689 99.089 688.49 98.7127 689.453C98.3015 690.41 98.1648 691.444 98.3026 692.555C98.4403 693.666 98.9181 694.774 99.736 695.879C100.896 697.447 102.27 698.421 103.857 698.801C105.445 699.182 107.16 699.125 109.003 698.632C110.826 698.154 112.704 697.371 114.636 696.284C116.548 695.211 118.409 694.006 120.217 692.667L120.307 692.788ZM105.898 703.262L133.481 682.853L130.783 679.206L130.933 679.094L140.323 691.786L140.173 691.897L137.452 688.219L110.019 708.517L112.74 712.194L112.589 712.306L105.898 703.262Z" fill="#B3B0AA"/>
<path d="M159.834 712.983C161.794 715.154 162.924 717.132 163.222 718.917C163.502 720.719 163.196 722.394 162.303 723.941C161.41 725.489 160.156 726.992 158.542 728.449L140.925 744.359L143.992 747.755L143.853 747.88L136.287 739.503L153.431 724.021C154.989 722.613 156.378 721.241 157.596 719.905C158.796 718.585 159.587 717.316 159.967 716.096C160.348 714.876 160.069 713.747 159.131 712.708C157.355 710.741 155.483 709.602 153.517 709.289C151.533 708.958 149.594 709.16 147.698 709.896C145.785 710.613 143.983 711.583 142.293 712.807C140.602 714.031 139.135 715.204 137.892 716.327L137.488 716.439C138.805 715.249 140.338 714 142.086 712.69C143.816 711.398 145.673 710.377 147.658 709.628C149.643 708.88 151.67 708.7 153.739 709.088C155.808 709.477 157.84 710.775 159.834 712.983ZM151.083 704.413L125.619 727.411L129.137 731.307L128.998 731.433L120.93 722.499L146.395 699.501L143.379 696.162L143.518 696.036L151.083 704.413Z" fill="#B3B0AA"/>
<path d="M186.904 739.471C189.536 741.815 191.265 744.459 192.091 747.404C192.898 750.332 192.918 753.279 192.151 756.245C191.385 759.211 189.921 761.908 187.759 764.335C185.598 766.762 183.088 768.528 180.231 769.632C177.373 770.736 174.443 771.056 171.442 770.593C168.421 770.112 165.595 768.7 162.962 766.356C160.33 764.012 158.601 761.367 157.775 758.422C156.949 755.478 156.929 752.531 157.714 749.581C158.481 746.615 159.945 743.918 162.106 741.491C164.268 739.064 166.777 737.299 169.635 736.195C172.474 735.074 175.404 734.754 178.424 735.234C181.445 735.714 184.271 737.126 186.904 739.471ZM186.779 739.611C185.248 738.247 183.634 737.597 181.938 737.66C180.223 737.706 178.525 738.203 176.845 739.15C175.165 740.097 173.568 741.27 172.055 742.668C170.507 744.068 169.151 745.421 167.988 746.728C166.807 748.054 165.619 749.557 164.424 751.238C163.21 752.902 162.23 754.623 161.483 756.401C160.736 758.18 160.438 759.924 160.59 761.633C160.724 763.325 161.556 764.852 163.087 766.216C164.618 767.579 166.241 768.238 167.956 768.191C169.652 768.129 171.34 767.624 173.021 766.676C174.701 765.729 176.307 764.565 177.839 763.183C179.351 761.785 180.698 760.424 181.878 759.098C183.042 757.791 184.239 756.296 185.47 754.614C186.665 752.933 187.636 751.204 188.383 749.425C189.13 747.646 189.437 745.911 189.303 744.219C189.151 742.51 188.31 740.974 186.779 739.611Z" fill="#B3B0AA"/>
<path d="M232.206 775.237L232.099 775.391L226.552 771.546L211.278 793.582L209.145 827.466L213.491 830.478L213.384 830.632L195.508 818.242L195.615 818.087L202.365 822.766L204.486 791.202L177 805.184L184.212 810.183L184.105 810.337L171.16 801.365L171.267 801.211L176.753 805.013L204.439 790.941L220.696 767.487L214.501 763.193L214.608 763.039L232.206 775.237Z" fill="#B3B0AA"/>
<path d="M293.226 786.388C295.177 787.293 296.963 788.343 298.586 789.537C300.197 790.698 301.521 791.974 302.556 793.364C303.57 794.744 304.205 796.196 304.462 797.721C304.696 799.236 304.439 800.798 303.692 802.408C302.976 803.95 302.025 805.079 300.838 805.796C299.639 806.48 298.364 806.88 297.014 806.998C295.641 807.105 294.348 807.042 293.133 806.809C291.906 806.543 290.907 806.231 290.136 805.873L290 805.81C291.961 805.562 293.392 804.945 294.291 803.956C295.168 802.958 295.98 801.654 296.728 800.044C297.391 798.615 297.758 797.022 297.83 795.263C297.913 793.483 297.544 791.782 296.725 790.162C295.884 788.531 294.442 787.242 292.402 786.294C290.587 785.452 288.777 784.929 286.97 784.724C285.174 784.497 283.482 784.58 281.894 784.973C280.294 785.333 278.875 785.983 277.639 786.925C276.39 787.834 275.424 789.026 274.74 790.5C274.066 791.951 273.923 793.359 274.309 794.723C274.673 796.077 275.403 797.325 276.498 798.468C277.582 799.577 278.861 800.474 280.335 801.158C280.811 801.379 281.548 801.721 282.546 802.184C283.521 802.637 284.507 803.095 285.505 803.558C286.503 804.021 287.251 804.368 287.75 804.6C290.811 806.021 293.061 807.588 294.497 809.303C295.934 811.017 296.205 812.838 295.311 814.765C294.774 815.922 294.005 816.777 293.003 817.332C291.979 817.877 290.807 818.173 289.489 818.223C288.148 818.262 286.716 818.08 285.195 817.677C283.662 817.297 282.091 816.733 280.481 815.985L280.56 815.815C281.286 816.152 282.094 816.431 282.984 816.651C283.863 816.894 284.745 817.013 285.628 817.01C286.512 817.007 287.313 816.855 288.031 816.554C288.727 816.243 289.248 815.713 289.595 814.965C290.143 813.786 289.839 812.777 288.685 811.938C287.52 811.122 286.008 810.282 284.149 809.419C283.355 809.051 282.698 808.746 282.176 808.504C281.644 808.284 281.14 808.064 280.664 807.843C280.177 807.645 279.616 807.398 278.981 807.103C277.711 806.514 276.505 805.816 275.363 805.011C274.221 804.205 273.303 803.214 272.609 802.037C271.915 800.861 271.589 799.455 271.631 797.821C271.661 796.154 272.212 794.163 273.286 791.85C274.223 789.832 275.424 788.254 276.889 787.115C278.343 785.943 279.982 785.174 281.805 784.808C283.617 784.408 285.5 784.359 287.455 784.66C289.398 784.928 291.322 785.504 293.226 786.388ZM280.594 815.831C281.977 816.473 283.299 817.307 284.559 818.333C285.809 819.382 286.851 820.582 287.684 821.933C288.507 823.307 288.987 824.826 289.125 826.488C289.241 828.14 288.861 829.907 287.988 831.789C287.114 833.672 286.015 835.091 284.689 836.046C283.33 837.014 281.866 837.616 280.296 837.852C278.715 838.111 277.126 838.09 275.529 837.789C273.921 837.512 272.426 837.052 271.043 836.41C269.659 835.768 268.366 834.933 267.161 833.906C265.924 832.89 264.916 831.706 264.139 830.353C263.35 829.022 262.91 827.536 262.818 825.895C262.715 824.276 263.1 822.526 263.973 820.643C264.847 818.761 265.94 817.326 267.254 816.337C268.567 815.348 269.992 814.714 271.527 814.434C273.052 814.177 274.607 814.182 276.192 814.449C277.743 814.728 279.211 815.189 280.594 815.831ZM280.515 816.001C279.177 815.38 277.863 815.363 276.571 815.948C275.269 816.557 274.067 817.542 272.966 818.905C271.832 820.28 270.875 821.807 270.096 823.485C269.317 825.163 268.774 826.868 268.466 828.599C268.136 830.32 268.164 831.863 268.551 833.228C268.927 834.615 269.784 835.619 271.122 836.24C272.46 836.861 273.78 836.867 275.082 836.259C276.373 835.673 277.581 834.704 278.705 833.352C279.806 831.988 280.746 830.468 281.525 828.79C282.304 827.112 282.954 825.443 283.477 823.784C283.988 822.147 284.079 820.646 283.748 819.279C283.384 817.925 282.307 816.833 280.515 816.001ZM257.141 818.795C257.98 819.185 258.626 819.843 259.078 820.769C259.53 821.696 259.498 822.714 258.982 823.825C258.456 824.959 257.72 825.596 256.773 825.735C255.793 825.887 254.895 825.773 254.079 825.394C253.24 825.005 252.562 824.387 252.045 823.541C251.495 822.707 251.436 821.825 251.867 820.895L251.969 820.943C251.412 822.144 251.333 823.472 251.733 824.926C252.1 826.391 253.134 827.519 254.835 828.308C255.764 828.74 256.918 828.986 258.295 829.047C259.64 829.119 261.068 828.804 262.58 828.1C264.081 827.418 265.527 826.174 266.917 824.366L267.087 824.445C265.655 826.344 264.16 827.634 262.603 828.317C261.046 829 259.584 829.3 258.217 829.217C256.816 829.145 255.663 828.899 254.756 828.478C253.644 827.963 252.808 827.271 252.246 826.404C251.684 825.537 251.371 824.606 251.309 823.613C251.236 822.642 251.399 821.725 251.799 820.864C252.473 819.412 253.316 818.605 254.329 818.441C255.342 818.277 256.28 818.395 257.141 818.795Z" fill="#B3B0AA"/>
<path d="M319.45 854.101L330.336 821.561L326.033 820.122L326.092 819.944L341.064 824.953L341.005 825.13L336.666 823.679L325.84 856.041L330.178 857.493L330.119 857.67L319.45 854.101ZM301.076 836.803L308.607 814.292L304.304 812.853L304.364 812.675L319.335 817.683L319.276 817.861L315.008 816.434L307.739 838.162C307.073 840.154 306.541 842.019 306.144 843.758C305.739 845.52 305.67 847.026 305.938 848.276C306.181 849.517 306.967 850.36 308.295 850.804C310.832 851.653 313.033 851.73 314.9 851.037C316.766 850.343 318.368 849.218 319.706 847.662C321.02 846.098 322.113 844.368 322.985 842.472C323.856 840.575 324.558 838.833 325.089 837.244L325.351 836.936C324.787 838.62 324.07 840.449 323.198 842.425C322.318 844.424 321.198 846.237 319.836 847.864C318.475 849.491 316.798 850.644 314.805 851.321C312.788 851.991 310.381 851.858 307.583 850.922C304.809 849.994 302.854 848.826 301.717 847.417C300.556 846.001 299.989 844.388 300.015 842.577C300.032 840.791 300.386 838.866 301.076 836.803Z" fill="#B3B0AA"/>
<path d="M343.089 874.546C344.279 874.835 345.208 875.511 345.876 876.574C346.513 877.655 346.687 878.791 346.398 879.982C346.102 881.196 345.426 882.125 344.369 882.769C343.288 883.406 342.152 883.58 340.962 883.291C339.747 882.995 338.818 882.319 338.175 881.262C337.531 880.205 337.357 879.069 337.653 877.855C337.942 876.664 338.618 875.735 339.681 875.068C340.738 874.424 341.874 874.25 343.089 874.546ZM343.036 860.639L351.144 827.299L346.772 826.235L346.816 826.053L362.156 829.784L362.112 829.966L357.703 828.894L349.639 862.052L354.048 863.124L354.004 863.307L343.036 860.639Z" fill="#B3B0AA"/>
<path d="M380.787 850.244C380.392 852.561 379.874 854.78 379.234 856.903C378.593 859.026 377.779 860.903 376.791 862.535C375.778 864.163 374.557 865.376 373.128 866.172C371.695 866.993 370.005 867.238 368.058 866.906C366.678 866.671 365.543 866.186 364.654 865.451C363.736 864.737 363.084 863.878 362.697 862.874C362.31 861.869 362.209 860.825 362.393 859.741C362.607 858.484 363.17 857.489 364.081 856.757C364.967 856.02 366.088 855.767 367.444 855.998C368.848 856.237 369.88 856.806 370.538 857.704C371.172 858.599 371.395 859.6 371.206 860.709C370.958 862.163 370.303 863.18 369.241 863.76C368.178 864.34 367.117 864.539 366.057 864.359C365.244 864.22 364.549 863.912 363.971 863.433C363.364 862.975 362.926 862.418 362.657 861.764C362.384 861.134 362.309 860.462 362.43 859.747L362.578 859.772C362.398 860.832 362.505 861.839 362.9 862.794C363.267 863.77 363.884 864.61 364.753 865.316C365.622 866.022 366.734 866.49 368.09 866.721C370.012 867.049 371.677 866.8 373.086 865.975C374.495 865.149 375.693 863.921 376.681 862.288C377.665 860.681 378.477 858.816 379.118 856.693C379.754 854.595 380.261 852.437 380.639 850.219L380.787 850.244ZM377.648 867.779L383.409 833.953L378.936 833.191L378.968 833.007L394.531 835.657L394.5 835.842L389.989 835.074L384.26 868.715L388.77 869.483L388.738 869.668L377.648 867.779Z" fill="#B3B0AA"/>
<path d="M443.657 839.507L443.644 839.694L421.23 838.218C419.085 838.077 417.057 838.62 415.148 839.847C413.236 841.1 411.655 842.85 410.405 845.097C409.128 847.368 408.392 849.988 408.197 852.957C408.001 855.925 408.402 858.407 409.398 860.402C410.369 862.395 411.735 863.913 413.495 864.956C415.255 865.998 417.208 866.59 419.354 866.732L428.297 867.32L428.284 867.507L418.555 866.867C415.038 866.636 411.835 865.999 408.948 864.957C406.06 863.915 403.794 862.375 402.149 860.338C400.504 858.301 399.788 855.66 400.002 852.417C400.371 846.805 402.37 842.89 405.999 840.673C409.6 838.48 414.42 837.582 420.457 837.98L443.657 839.507ZM436.954 839.141L433.269 895.119L426.122 894.649L429.807 838.67L436.954 839.141ZM428.294 867.358L428.282 867.545L420.05 867.003C418.154 866.878 416.33 867.184 414.578 867.921C412.799 868.68 411.312 869.948 410.118 871.723C408.898 873.522 408.189 875.906 407.994 878.874C407.799 881.843 408.179 884.436 409.136 886.654C410.067 888.87 411.355 890.62 412.999 891.906C414.643 893.192 416.401 893.896 418.272 894.02L439.975 895.448L439.962 895.635L418.259 894.207C412.597 893.834 408.141 892.438 404.893 890.02C401.618 887.625 400.141 883.995 400.461 879.13C400.781 874.266 402.619 870.892 405.975 869.008C409.329 867.149 414.025 866.419 420.062 866.816L428.294 867.358Z" fill="#B3B0AA"/>
<path d="M488.429 835.878C491.141 835.607 493.774 836.059 496.329 837.236C498.884 838.412 501.053 840.255 502.837 842.765C504.596 845.277 505.662 848.399 506.036 852.13C506.409 855.862 505.983 859.133 504.757 861.944C503.509 864.782 501.749 867.031 499.478 868.691C497.209 870.375 494.719 871.353 492.008 871.625C488.675 871.958 485.888 870.981 483.649 868.693C481.385 866.407 479.826 863.008 478.973 858.495L482.476 893.495L486.954 893.047L486.973 893.234L475.741 894.358L470.157 838.574L465.68 839.022L465.661 838.836L476.892 837.711L478.248 851.256C478.19 846.664 479.046 843.036 480.814 840.372C482.558 837.71 485.096 836.212 488.429 835.878ZM487.366 836.55C485.426 836.744 483.724 837.568 482.262 839.021C480.799 840.474 479.736 842.527 479.072 845.182C478.383 847.838 478.229 851.07 478.61 854.876C478.991 858.682 479.783 861.819 480.985 864.286C482.164 866.781 483.614 868.596 485.336 869.73C487.06 870.889 488.892 871.371 490.832 871.177C492.922 870.968 494.562 870.037 495.754 868.385C496.948 866.758 497.737 864.606 498.123 861.93C498.508 859.253 498.534 856.248 498.2 852.915C497.866 849.581 497.245 846.641 496.337 844.094C495.431 841.572 494.232 839.631 492.739 838.273C491.247 836.915 489.456 836.341 487.366 836.55Z" fill="#B3B0AA"/>
<path d="M529.541 846.921C530.004 849.225 530.317 851.482 530.481 853.693C530.645 855.904 530.559 857.949 530.222 859.827C529.861 861.71 529.156 863.28 528.108 864.536C527.065 865.816 525.575 866.651 523.639 867.04C522.266 867.316 521.033 867.271 519.94 866.904C518.826 866.567 517.909 865.999 517.188 865.2C516.466 864.402 515.997 863.463 515.78 862.385C515.529 861.135 515.697 860.005 516.285 858.994C516.848 857.988 517.803 857.35 519.151 857.079C520.548 856.799 521.715 856.959 522.652 857.562C523.565 858.169 524.132 859.024 524.353 860.127C524.644 861.573 524.397 862.757 523.614 863.679C522.83 864.602 521.911 865.169 520.857 865.381C520.049 865.543 519.289 865.505 518.578 865.265C517.847 865.055 517.239 864.693 516.753 864.178C516.272 863.689 515.96 863.088 515.817 862.377L515.964 862.348C516.176 863.402 516.638 864.304 517.349 865.053C518.041 865.832 518.919 866.395 519.984 866.742C521.048 867.089 522.254 867.127 523.602 866.857C525.514 866.472 526.979 865.642 527.998 864.367C529.016 863.091 529.694 861.514 530.031 859.636C530.372 857.783 530.461 855.75 530.297 853.539C530.138 851.353 529.837 849.156 529.394 846.95L529.541 846.921ZM532.903 864.414L526.143 830.774L521.695 831.668L521.658 831.484L537.136 828.374L537.173 828.557L532.688 829.459L539.41 862.915L543.896 862.014L543.933 862.198L532.903 864.414Z" fill="#B3B0AA"/>
<path d="M546.031 825.281C547.158 824.947 548.27 824.785 549.369 824.798C550.461 824.787 551.463 825.128 552.373 825.822C553.26 826.524 553.956 827.726 554.461 829.427L559.363 845.927C559.876 847.652 560.524 849.35 561.307 851.022C562.074 852.724 563.083 854.015 564.336 854.894C565.571 855.805 567.148 855.976 569.065 855.406C570.383 855.015 571.651 854.455 572.87 853.728C574.088 853.001 575.159 852.174 576.084 851.248C576.984 850.328 577.642 849.337 578.056 848.275C578.454 847.244 578.496 846.201 578.183 845.147L578.291 845.115C578.654 846.337 578.544 847.413 577.959 848.343C577.358 849.304 576.578 849.927 575.62 850.212C574.589 850.518 573.555 850.46 572.517 850.038C571.462 849.648 570.753 848.841 570.389 847.619C569.962 846.181 570.096 845.007 570.79 844.096C571.461 843.193 572.287 842.595 573.27 842.304C574.372 841.976 575.407 842.034 576.373 842.477C577.315 842.927 577.978 843.799 578.363 845.094C578.698 846.22 578.649 847.33 578.218 848.423C577.769 849.547 577.038 850.599 576.025 851.578C574.995 852.588 573.763 853.489 572.329 854.28C570.902 855.095 569.374 855.745 567.745 856.229C564.437 857.211 561.81 857.366 559.863 856.693C557.891 856.027 556.387 854.87 555.35 853.222C554.289 851.581 553.47 849.79 552.893 847.849L547.371 829.265C547.115 828.402 546.723 827.697 546.195 827.149C545.651 826.633 544.863 826.528 543.833 826.834C542.994 827.083 542.189 827.753 541.417 828.843C540.653 829.957 540.174 831.286 539.981 832.83L539.83 832.718C540.004 831.023 540.644 829.49 541.75 828.118C542.831 826.754 544.258 825.808 546.031 825.281ZM562.603 820.358C565.718 819.432 568.446 819.482 570.785 820.509C573.107 821.566 574.674 823.461 575.486 826.193C576.44 829.404 575.828 832.259 573.649 834.758C571.454 837.288 567.804 839.311 562.699 840.828L554.899 843.146L554.845 842.966L562.646 840.648C564.755 840.022 566.267 839.012 567.183 837.618C568.075 836.231 568.568 834.729 568.661 833.111C568.73 831.499 568.568 830.034 568.177 828.716C567.821 827.518 567.307 826.315 566.635 825.106C565.963 823.897 565.132 822.945 564.142 822.247C563.16 821.574 562.046 821.423 560.8 821.793C559.362 822.22 558.172 823.043 557.23 824.262C556.295 825.505 555.749 827.18 555.593 829.286C555.437 831.393 555.81 833.968 556.715 837.012L556.535 837.065C555.723 834.333 555.347 831.837 555.405 829.577C555.464 827.317 556.065 825.39 557.21 823.799C558.361 822.231 560.159 821.084 562.603 820.358Z" fill="#B3B0AA"/>
<path d="M595.026 808.591C598.285 807.249 601.42 806.851 604.429 807.397C607.415 807.952 610.074 809.223 612.406 811.21C614.738 813.197 616.522 815.693 617.759 818.699C618.996 821.704 619.486 824.733 619.229 827.786C618.971 830.839 617.977 833.613 616.247 836.11C614.494 838.615 611.988 840.539 608.728 841.881C605.468 843.223 602.334 843.621 599.325 843.075C596.316 842.529 593.657 841.258 591.348 839.262C589.016 837.275 587.232 834.778 585.995 831.773C584.758 828.768 584.268 825.739 584.525 822.686C584.76 819.643 585.753 816.868 587.506 814.362C589.26 811.856 591.766 809.932 595.026 808.591ZM595.097 808.764C593.201 809.544 591.911 810.711 591.225 812.264C590.516 813.826 590.22 815.57 590.337 817.495C590.454 819.421 590.81 821.37 591.405 823.341C591.987 825.346 592.611 827.157 593.277 828.776C593.952 830.417 594.784 832.143 595.773 833.953C596.738 835.772 597.857 837.407 599.13 838.857C600.402 840.306 601.84 841.337 603.443 841.948C605.023 842.568 606.761 842.488 608.657 841.708C610.552 840.927 611.855 839.756 612.563 838.194C613.249 836.641 613.533 834.902 613.417 832.976C613.3 831.051 612.955 829.097 612.383 827.116C611.788 825.144 611.152 823.337 610.477 821.696C609.811 820.078 608.99 818.347 608.016 816.505C607.027 814.695 605.897 813.065 604.624 811.615C603.352 810.165 601.925 809.13 600.345 808.51C598.742 807.899 596.993 807.984 595.097 808.764Z" fill="#B3B0AA"/>
<path d="M655.537 778.888L655.628 779.052L635.965 789.912C634.083 790.952 632.67 792.504 631.725 794.568C630.792 796.654 630.407 798.98 630.568 801.547C630.719 804.148 631.514 806.751 632.952 809.355C634.391 811.959 636.068 813.832 637.983 814.973C639.877 816.126 641.846 816.667 643.891 816.594C645.935 816.521 647.899 815.965 649.781 814.926L657.626 810.592L657.717 810.757L649.182 815.471C646.097 817.175 643.057 818.368 640.064 819.05C637.071 819.732 634.332 819.66 631.847 818.833C629.363 818.006 627.335 816.17 625.764 813.326C623.044 808.402 622.613 804.027 624.47 800.203C626.318 796.412 629.889 793.054 635.185 790.129L655.537 778.888ZM649.698 782.199L676.821 831.307L670.551 834.769L643.428 785.662L649.698 782.199ZM657.644 810.625L657.735 810.789L650.513 814.778C648.85 815.697 647.48 816.939 646.403 818.505C645.316 820.105 644.749 821.974 644.703 824.114C644.646 826.287 645.337 828.675 646.776 831.28C648.214 833.884 649.934 835.861 651.937 837.211C653.917 838.573 655.946 839.352 658.024 839.546C660.103 839.741 661.962 839.385 663.604 838.478L682.642 827.963L682.733 828.127L663.694 838.643C658.727 841.386 654.223 842.617 650.183 842.335C646.133 842.087 642.93 839.83 640.573 835.562C638.216 831.295 637.941 827.462 639.749 824.065C641.569 820.689 645.127 817.539 650.423 814.614L657.644 810.625Z" fill="#B3B0AA"/>
<path d="M685.03 756.475C687.613 754.461 690.387 753.202 693.353 752.696C696.315 752.226 699.229 752.569 702.097 753.726C704.979 754.903 707.573 756.97 709.879 759.927C712.184 762.885 713.568 765.879 714.029 768.911C714.486 771.978 714.128 774.873 712.953 777.595C711.794 780.338 709.923 782.715 707.34 784.729C704.403 787.019 701.585 788.264 698.888 788.464C696.187 788.7 693.695 788.186 691.411 786.924C689.107 785.676 687.118 783.978 685.443 781.829L707.299 764.791L707.414 764.939L691.828 777.089C692.715 778.268 693.765 779.493 694.979 780.766C696.193 782.039 697.499 783.144 698.897 784.084C700.275 785.038 701.673 785.612 703.092 785.806C704.526 786.019 705.904 785.611 707.225 784.581C708.684 783.444 709.574 782.084 709.895 780.503C710.211 778.957 710.115 777.288 709.606 775.497C709.098 773.707 708.316 771.891 707.262 770.05C706.188 768.225 704.989 766.464 703.668 764.769C702.361 763.093 700.946 761.501 699.423 759.995C697.895 758.523 696.323 757.339 694.706 756.444C693.069 755.565 691.416 755.11 689.745 755.082C688.07 755.088 686.424 755.721 684.807 756.981C681.751 759.364 679.915 762.174 679.3 765.411C678.681 768.683 678.952 771.816 680.113 774.81L679.965 774.925C678.736 771.762 678.451 768.529 679.109 765.227C679.764 761.959 681.737 759.042 685.03 756.475Z" fill="#B3B0AA"/>
<path d="M731.932 715.488L732.062 715.623L728.769 718.798L767.548 759.024L770.842 755.849L770.972 755.984L762.846 763.818L723.936 723.457L720.696 726.58L720.566 726.445L731.932 715.488ZM715.437 731.39L715.567 731.525L712.327 734.648L728.23 751.144C729.704 752.674 731.121 754.017 732.479 755.173C733.837 756.33 735.131 757.078 736.363 757.419C737.576 757.777 738.687 757.47 739.695 756.499C741.621 754.642 742.708 752.726 742.956 750.75C743.204 748.775 742.948 746.834 742.187 744.928C741.409 743.04 740.38 741.271 739.102 739.621C737.806 737.988 736.576 736.569 735.414 735.363L735.289 734.963C736.521 736.24 737.811 737.723 739.159 739.409C740.506 741.131 741.596 742.964 742.426 744.906C743.239 746.866 743.485 748.886 743.164 750.966C742.825 753.064 741.594 755.137 739.47 757.184C737.364 759.214 735.424 760.408 733.649 760.764C731.857 761.138 730.164 760.895 728.571 760.035C726.995 759.192 725.452 757.988 723.943 756.423L707.468 739.333L704.201 742.482L704.071 742.347L715.437 731.39Z" fill="#B3B0AA"/>
<path d="M757.523 684.774L757.668 684.893L752.451 691.284L795.734 726.62L800.477 720.81C801.884 719.086 802.709 717.404 802.951 715.762C803.198 714.156 803.001 712.559 802.361 710.972C801.72 709.384 800.717 707.806 799.35 706.239C797.987 704.706 796.386 703.189 794.546 701.687L794.664 701.542L807.736 712.214L779.491 746.811L766.419 736.139L766.562 735.965C768.402 737.467 770.216 738.722 772.006 739.732C773.8 740.777 775.538 741.454 777.222 741.763C778.906 742.073 780.526 741.927 782.082 741.325C783.641 740.759 785.109 739.633 786.484 737.949L791.228 732.139L747.945 696.803L742.728 703.194L742.582 703.075L757.523 684.774Z" fill="#B3B0AA"/>
<path d="M784.642 642.147C786.399 639.091 788.635 636.859 791.349 635.449C794.051 634.062 796.932 633.44 799.992 633.585C803.052 633.73 805.991 634.613 808.808 636.234C811.625 637.854 813.866 639.95 815.53 642.523C817.194 645.095 818.106 647.898 818.264 650.931C818.411 653.986 817.605 657.041 815.848 660.096C814.09 663.152 811.854 665.384 809.14 666.794C806.426 668.203 803.545 668.825 800.497 668.658C797.437 668.513 794.498 667.63 791.681 666.009C788.864 664.389 786.623 662.293 784.959 659.72C783.283 657.17 782.371 654.367 782.225 651.312C782.078 648.258 782.884 645.202 784.642 642.147ZM784.804 642.24C783.782 644.017 783.475 645.73 783.883 647.377C784.278 649.047 785.111 650.607 786.381 652.059C787.651 653.511 789.125 654.834 790.802 656.03C792.489 657.259 794.091 658.311 795.608 659.183C797.146 660.068 798.86 660.924 800.749 661.751C802.626 662.6 804.511 663.208 806.405 663.577C808.298 663.945 810.066 663.88 811.708 663.382C813.337 662.906 814.663 661.78 815.685 660.003C816.707 658.226 817.021 656.503 816.625 654.833C816.218 653.186 815.379 651.636 814.108 650.184C812.838 648.732 811.37 647.398 809.705 646.181C808.028 644.985 806.42 643.945 804.882 643.06C803.365 642.187 801.657 641.321 799.759 640.459C797.869 639.632 795.978 639.035 794.084 638.666C792.191 638.298 790.429 638.352 788.8 638.828C787.158 639.326 785.826 640.463 784.804 642.24Z" fill="#B3B0AA"/>
<path d="M810.665 590.068L810.837 590.142L807.577 597.721L858.906 619.797L861.869 612.907C862.748 610.863 863.079 609.019 862.861 607.374C862.657 605.762 862.028 604.281 860.976 602.93C859.924 601.58 858.526 600.339 856.781 599.207C855.049 598.108 853.092 597.09 850.91 596.152L850.984 595.979L866.487 602.647L848.84 643.675L833.338 637.008L833.427 636.801C835.609 637.74 837.699 638.448 839.698 638.927C841.709 639.438 843.567 639.611 845.271 639.446C846.975 639.281 848.492 638.695 849.823 637.689C851.167 636.716 852.268 635.23 853.128 633.232L856.091 626.342L804.762 604.266L801.503 611.845L801.33 611.771L810.665 590.068Z" fill="#B3B0AA"/>
<path d="M827.014 534.093L837.175 536.741L837.127 536.922C835.325 536.504 833.507 536.689 831.674 537.477C829.859 538.296 828.261 539.52 826.88 541.15C825.493 542.803 824.529 544.67 823.986 546.751C823.608 548.202 823.46 549.662 823.543 551.13C823.619 552.623 824.039 553.934 824.804 555.063C825.593 556.199 826.834 556.987 828.528 557.429C830.076 557.832 831.415 557.652 832.544 556.887C833.692 556.152 834.736 555.068 835.678 553.635C836.645 552.207 837.612 550.677 838.58 549.043C839.573 547.416 840.661 545.917 841.845 544.546C843.047 543.206 844.442 542.213 846.031 541.568C847.644 540.929 849.576 540.903 851.826 541.489C853.374 541.893 854.791 542.65 856.078 543.76C857.382 544.901 858.323 546.347 858.9 548.099C859.501 549.858 859.502 551.886 858.903 554.184C858.449 555.926 857.742 557.447 856.784 558.747C855.825 560.048 854.738 561.095 853.523 561.889L855.902 565.997L855.854 566.178L845.694 563.53L845.741 563.349C847.32 563.734 848.992 563.615 850.756 562.99C852.539 562.395 854.156 561.344 855.608 559.836C857.085 558.335 858.116 556.46 858.702 554.21C859.068 552.807 859.181 551.48 859.042 550.229C858.921 549.009 858.534 547.966 857.882 547.098C857.23 546.23 856.311 545.642 855.125 545.333C853.674 544.955 852.377 545.172 851.235 545.986C850.117 546.805 849.042 547.959 848.008 549.446C846.968 550.958 845.918 552.557 844.859 554.245C843.793 555.956 842.622 557.524 841.346 558.948C840.095 560.379 838.669 561.441 837.067 562.134C835.459 562.852 833.578 562.93 831.425 562.369C829.272 561.808 827.503 560.766 826.118 559.242C824.756 557.725 823.85 555.9 823.398 553.767C822.94 551.658 823.014 549.442 823.619 547.12C824.098 545.281 824.851 543.631 825.879 542.167C826.906 540.704 828.097 539.503 829.453 538.565L826.967 534.274L827.014 534.093Z" fill="#B3B0AA"/>
<path d="M830.95 513.195C831.487 509.964 832.675 507.158 834.515 504.778C836.376 502.426 838.753 500.705 841.646 499.614C844.564 498.528 847.872 498.292 851.571 498.907C855.27 499.522 858.317 500.788 860.709 502.706C863.123 504.653 864.819 507.026 865.799 509.825C866.803 512.627 867.037 515.644 866.5 518.875C865.889 522.549 864.659 525.373 862.811 527.347C860.983 529.349 858.801 530.659 856.265 531.277C853.726 531.919 851.112 532.017 848.424 531.57L852.967 504.233L853.152 504.264L849.912 523.759C851.363 524.025 852.966 524.216 854.721 524.33C856.476 524.444 858.186 524.373 859.85 524.118C861.51 523.887 862.928 523.362 864.103 522.544C865.303 521.729 866.04 520.496 866.315 518.844C866.618 517.019 866.352 515.416 865.517 514.035C864.703 512.684 863.502 511.521 861.915 510.548C860.328 509.574 858.524 508.768 856.501 508.127C854.475 507.512 852.401 507.028 850.28 506.675C848.184 506.327 846.065 506.114 843.924 506.037C841.803 505.989 839.845 506.183 838.049 506.619C836.249 507.081 834.724 507.866 833.476 508.977C832.247 510.116 831.465 511.696 831.129 513.718C830.494 517.541 831.046 520.851 832.786 523.649C834.546 526.476 836.867 528.598 839.749 530.015L839.718 530.2C836.672 528.705 834.273 526.52 832.521 523.643C830.789 520.796 830.265 517.313 830.95 513.195Z" fill="#B3B0AA"/>
<path d="M883.599 485.416C883.706 484.196 884.234 483.176 885.184 482.355C886.157 481.562 887.253 481.219 888.474 481.325C889.719 481.434 890.739 481.963 891.535 482.91C892.328 483.883 892.671 484.98 892.565 486.2C892.456 487.445 891.928 488.466 890.98 489.261C890.032 490.057 888.935 490.4 887.69 490.291C886.47 490.184 885.449 489.656 884.629 488.706C883.833 487.758 883.49 486.662 883.599 485.416ZM869.86 487.566L835.677 484.578L835.286 489.061L835.099 489.045L836.473 473.317L836.66 473.334L836.265 477.854L870.26 480.825L870.656 476.305L870.842 476.321L869.86 487.566Z" fill="#B3B0AA"/>
<path d="M853.89 451.815C856.24 451.855 858.512 452.032 860.707 452.345C862.902 452.658 864.881 453.18 866.643 453.911C868.405 454.666 869.788 455.69 870.791 456.983C871.818 458.276 872.315 459.91 872.281 461.885C872.257 463.284 871.949 464.479 871.356 465.469C870.789 466.484 870.038 467.259 869.103 467.793C868.169 468.327 867.152 468.584 866.052 468.565C864.777 468.543 863.709 468.137 862.848 467.347C861.986 466.582 861.567 465.512 861.59 464.137C861.615 462.712 862.022 461.607 862.811 460.82C863.599 460.059 864.555 459.688 865.68 459.707C867.155 459.733 868.259 460.227 868.993 461.19C869.726 462.153 870.083 463.172 870.065 464.247C870.051 465.071 869.85 465.806 869.464 466.449C869.102 467.118 868.618 467.635 868.012 467.999C867.431 468.364 866.777 468.54 866.053 468.528L866.055 468.378C867.13 468.396 868.11 468.138 868.994 467.604C869.903 467.094 870.641 466.357 871.208 465.392C871.774 464.426 872.07 463.256 872.094 461.881C872.127 459.932 871.63 458.323 870.602 457.055C869.574 455.787 868.178 454.787 866.416 454.057C864.678 453.327 862.712 452.805 860.517 452.492C858.347 452.179 856.137 452.004 853.888 451.965L853.89 451.815ZM871.697 452.273L837.39 451.679L837.311 456.216L837.124 456.212L837.397 440.427L837.585 440.43L837.506 445.005L871.626 445.596L871.705 441.021L871.892 441.025L871.697 452.273Z" fill="#B3B0AA"/>
<path d="M835.289 417.608C835.018 414.093 835.607 410.989 837.055 408.295C838.505 405.626 840.534 403.489 843.144 401.884C845.753 400.28 848.678 399.353 851.919 399.104C855.159 398.854 858.192 399.323 861.016 400.51C863.84 401.697 866.173 403.499 868.013 405.915C869.856 408.355 870.913 411.333 871.183 414.848C871.453 418.362 870.864 421.467 869.417 424.161C867.969 426.855 865.939 428.991 863.328 430.571C860.718 432.176 857.793 433.103 854.553 433.352C851.312 433.602 848.28 433.133 845.456 431.946C842.633 430.784 840.301 428.982 838.458 426.541C836.615 424.1 835.559 421.123 835.289 417.608ZM835.476 417.594C835.633 419.638 836.344 421.225 837.61 422.357C838.877 423.513 840.445 424.333 842.312 424.816C844.18 425.299 846.143 425.562 848.202 425.604C850.288 425.669 852.204 425.635 853.949 425.501C855.719 425.364 857.617 425.106 859.644 424.724C861.672 424.368 863.572 423.808 865.344 423.045C867.116 422.282 868.539 421.232 869.615 419.895C870.693 418.584 871.153 416.906 870.996 414.862C870.839 412.818 870.126 411.218 868.859 410.062C867.594 408.931 866.027 408.123 864.159 407.64C862.292 407.157 860.328 406.882 858.266 406.815C856.207 406.772 854.292 406.819 852.523 406.955C850.778 407.089 848.879 407.336 846.825 407.694C844.798 408.076 842.899 408.648 841.127 409.411C839.356 410.174 837.931 411.212 836.853 412.523C835.778 413.86 835.319 415.55 835.476 417.594Z" fill="#B3B0AA"/>
<path d="M858.468 340.868L824.91 348.025L825.857 352.462L825.673 352.501L822.38 337.061L822.564 337.022L823.518 341.496L856.892 334.379L855.938 329.904L856.121 329.865L858.468 340.868ZM852.592 364.015L829.376 368.966L830.323 373.404L830.14 373.443L826.847 358.003L827.03 357.964L827.976 362.401L850.385 357.622C852.439 357.184 854.321 356.719 856.03 356.226C857.765 355.729 859.107 355.072 860.058 354.255C861.014 353.464 861.348 352.395 861.062 351.051C860.582 348.801 859.585 347.122 858.07 346.014C856.561 344.93 854.801 344.231 852.792 343.919C850.788 343.63 848.745 343.58 846.663 343.769C844.582 343.957 842.722 344.226 841.084 344.575L840.686 344.507C842.422 344.136 844.362 343.825 846.507 343.572C848.681 343.338 850.812 343.382 852.9 343.704C854.988 344.026 856.812 344.787 858.371 345.988C859.936 347.213 860.987 349.085 861.525 351.604C862.072 354.171 862.026 356.29 861.385 357.96C860.744 359.631 859.643 360.939 858.081 361.886C856.549 362.852 854.719 363.561 852.592 364.015ZM857.05 384.92L833.835 389.871L834.774 394.272L834.59 394.311L831.297 378.871L831.481 378.832L832.427 383.269L854.836 378.49C856.889 378.052 858.771 377.587 860.481 377.095C862.215 376.597 863.561 375.952 864.516 375.16C865.472 374.369 865.804 373.288 865.512 371.919C865.038 369.694 864.043 368.027 862.529 366.919C861.019 365.835 859.263 365.148 857.258 364.86C855.254 364.572 853.211 364.522 851.13 364.71C849.048 364.899 847.188 365.167 845.55 365.517L845.152 365.448C846.888 365.078 848.828 364.766 850.973 364.514C853.147 364.28 855.275 364.312 857.358 364.609C859.446 364.93 861.27 365.692 862.83 366.893C864.395 368.118 865.446 369.99 865.983 372.509C866.531 375.076 866.481 377.182 865.836 378.828C865.195 380.499 864.096 381.819 862.539 382.791C861.007 383.756 859.178 384.466 857.05 384.92Z" fill="#B3B0AA"/>
<path d="M814.592 319.018C813.5 315.93 813.183 312.899 813.643 309.926C814.135 306.968 815.383 304.312 817.388 301.959C819.417 299.597 822.199 297.791 825.734 296.54C829.269 295.29 832.548 294.926 835.57 295.448C838.624 295.985 841.256 297.242 843.467 299.218C845.701 301.185 847.364 303.713 848.456 306.8C849.698 310.312 849.987 313.379 849.324 316C848.692 318.637 847.415 320.839 845.495 322.605C843.582 324.395 841.341 325.745 838.772 326.654L829.531 300.527L829.708 300.465L836.298 319.096C837.697 318.628 839.192 318.019 840.784 317.271C842.375 316.522 843.837 315.634 845.171 314.605C846.512 313.6 847.5 312.456 848.133 311.171C848.789 309.878 848.838 308.442 848.279 306.863C847.662 305.119 846.655 303.844 845.256 303.04C843.89 302.25 842.277 301.813 840.417 301.728C838.557 301.644 836.588 301.81 834.508 302.228C832.436 302.669 830.387 303.248 828.36 303.965C826.357 304.673 824.399 305.511 822.488 306.479C820.608 307.462 818.988 308.579 817.627 309.83C816.274 311.104 815.32 312.528 814.763 314.104C814.239 315.695 814.318 317.457 815.002 319.39C816.294 323.043 818.378 325.673 821.254 327.281C824.162 328.905 827.219 329.64 830.427 329.486L830.489 329.663C827.1 329.828 823.943 329.075 821.019 327.404C818.126 325.749 815.984 322.954 814.592 319.018Z" fill="#B3B0AA"/>
<path d="M791.889 266.659L833.223 222.216L836.473 228.598L802.813 265.137L851.804 258.707L851.906 258.908L791.974 266.826L791.889 266.659ZM833.274 222.316L783.315 247.754L785.953 252.934L785.786 253.019L780.596 242.827L780.763 242.742L783.23 247.587L833.022 222.234L830.402 217.088L830.569 217.002L833.274 222.316ZM857.47 269.835L857.303 269.92L854.921 265.242L805.129 290.595L807.511 295.274L807.344 295.359L798.99 278.951L799.157 278.866L801.896 284.246L851.855 258.808L857.47 269.835Z" fill="#B3B0AA"/>
<path d="M771.087 201.508C772.97 200.102 774.876 198.852 776.803 197.756C778.731 196.661 780.615 195.863 782.456 195.362C784.312 194.881 786.032 194.845 787.616 195.254C789.221 195.647 790.613 196.636 791.795 198.218C792.632 199.34 793.119 200.474 793.257 201.619C793.429 202.77 793.309 203.842 792.897 204.836C792.484 205.83 791.838 206.656 790.956 207.314C789.934 208.077 788.841 208.409 787.676 208.311C786.526 208.234 785.54 207.644 784.718 206.542C783.865 205.4 783.511 204.277 783.653 203.172C783.811 202.087 784.34 201.209 785.242 200.536C786.424 199.653 787.599 199.369 788.769 199.681C789.938 199.994 790.844 200.581 791.487 201.443C791.981 202.104 792.271 202.807 792.36 203.552C792.483 204.303 792.416 205.007 792.16 205.667C791.923 206.311 791.515 206.85 790.934 207.284L790.844 207.164C791.705 206.521 792.322 205.717 792.694 204.753C793.102 203.794 793.234 202.759 793.092 201.649C792.949 200.539 792.467 199.432 791.644 198.331C790.478 196.768 789.1 195.8 787.511 195.426C785.922 195.052 784.207 195.116 782.366 195.617C780.544 196.102 778.67 196.893 776.743 197.989C774.835 199.069 772.98 200.282 771.177 201.628L771.087 201.508ZM785.451 190.974L757.954 211.498L760.668 215.134L760.518 215.246L751.074 202.594L751.225 202.482L753.961 206.148L781.308 185.737L778.572 182.07L778.722 181.958L785.451 190.974Z" fill="#B3B0AA"/>
<path d="M731.476 181.479C729.506 179.316 728.368 177.343 728.062 175.559C727.775 173.758 728.074 172.082 728.961 170.531C729.847 168.979 731.095 167.471 732.703 166.007L750.252 150.023L747.172 146.641L747.31 146.515L754.911 154.86L737.832 170.414C736.28 171.828 734.897 173.206 733.684 174.547C732.49 175.872 731.705 177.145 731.329 178.366C730.953 179.587 731.237 180.715 732.18 181.75C733.964 183.71 735.84 184.841 737.808 185.146C739.793 185.468 741.731 185.258 743.624 184.515C745.534 183.79 747.332 182.812 749.017 181.581C750.703 180.35 752.165 179.171 753.403 178.043L753.807 177.929C752.494 179.125 750.967 180.38 749.224 181.697C747.5 182.997 745.647 184.025 743.665 184.782C741.683 185.539 739.657 185.728 737.586 185.348C735.516 184.968 733.479 183.678 731.476 181.479ZM740.262 190.012L765.63 166.908L762.095 163.026L762.233 162.9L770.339 171.8L744.971 194.904L748.001 198.231L747.862 198.357L740.262 190.012Z" fill="#B3B0AA"/>
<path d="M704.295 155.104C701.653 152.771 699.913 150.134 699.075 147.193C698.255 144.268 698.223 141.321 698.977 138.352C699.731 135.382 701.184 132.68 703.335 130.244C705.486 127.807 707.989 126.031 710.842 124.915C713.695 123.799 716.623 123.467 719.627 123.918C722.649 124.386 725.481 125.786 728.124 128.119C730.766 130.453 732.506 133.09 733.344 136.031C734.182 138.972 734.215 141.919 733.442 144.872C732.687 147.841 731.235 150.544 729.084 152.98C726.932 155.416 724.43 157.192 721.577 158.308C718.743 159.441 715.814 159.773 712.792 159.306C709.77 158.838 706.937 157.438 704.295 155.104ZM704.419 154.964C705.956 156.321 707.572 156.964 709.268 156.894C710.983 156.841 712.678 156.337 714.355 155.383C716.031 154.428 717.623 153.249 719.13 151.845C720.672 150.438 722.022 149.079 723.181 147.768C724.355 146.437 725.537 144.929 726.725 143.243C727.932 141.574 728.906 139.849 729.645 138.067C730.385 136.286 730.675 134.541 730.515 132.833C730.375 131.141 729.536 129.617 728 128.26C726.463 126.903 724.837 126.251 723.123 126.305C721.427 126.374 719.74 126.887 718.064 127.841C716.387 128.795 714.786 129.966 713.261 131.354C711.754 132.758 710.413 134.126 709.238 135.456C708.08 136.768 706.889 138.268 705.665 139.955C704.477 141.641 703.513 143.375 702.774 145.156C702.034 146.938 701.735 148.675 701.875 150.366C702.035 152.074 702.883 153.607 704.419 154.964Z" fill="#B3B0AA"/>
<path d="M658.843 119.528L658.949 119.373L664.513 123.195L679.695 101.095L681.685 67.2032L677.327 64.2093L677.433 64.0547L695.361 76.3702L695.255 76.5247L688.486 71.8746L686.496 103.447L713.924 89.3498L706.691 84.3811L706.797 84.2266L719.779 93.1447L719.673 93.2992L714.171 89.5197L686.545 103.708L670.386 127.23L676.599 131.498L676.492 131.652L658.843 119.528Z" fill="#B3B0AA"/>
<path d="M597.777 108.632C595.823 107.735 594.032 106.693 592.404 105.506C590.788 104.351 589.46 103.081 588.418 101.695C587.399 100.32 586.758 98.8699 586.494 97.3461C586.254 95.8327 586.504 94.2695 587.244 92.6563C587.954 91.1114 588.9 89.978 590.084 89.2562C591.281 88.5675 592.554 88.1616 593.903 88.0383C595.275 87.9255 596.569 87.9831 597.785 88.2111C599.013 88.4723 600.013 88.7802 600.786 89.1348L600.922 89.1974C598.962 89.4528 597.534 90.0765 596.638 91.0683C595.766 92.0706 594.959 93.3783 594.219 94.9914C593.561 96.4228 593.201 98.0177 593.136 99.7762C593.061 101.557 593.437 103.256 594.262 104.873C595.111 106.501 596.557 107.784 598.602 108.722C600.42 109.557 602.232 110.073 604.04 110.27C605.837 110.49 607.529 110.4 609.115 110C610.714 109.634 612.13 108.977 613.362 108.03C614.607 107.116 615.568 105.92 616.246 104.443C616.914 102.989 617.051 101.581 616.659 100.218C616.29 98.8655 615.555 97.6203 614.454 96.4823C613.366 95.3775 612.083 94.4862 610.607 93.8082C610.129 93.5892 609.391 93.2502 608.391 92.7913C607.414 92.3428 606.426 91.8891 605.426 91.4301C604.427 90.9712 603.677 90.627 603.177 90.3976C600.11 88.9895 597.854 87.4314 596.41 85.7232C594.966 84.0149 594.687 82.1952 595.574 80.264C596.106 79.1053 596.872 78.2464 597.871 77.6873C598.893 77.1387 600.063 76.8369 601.381 76.7818C602.722 76.7372 604.154 76.9132 605.678 77.31C607.212 77.684 608.785 78.2413 610.398 78.9818L610.32 79.1522C609.593 78.8184 608.784 78.5433 607.893 78.3269C607.012 78.0877 606.13 77.9717 605.247 77.9787C604.363 77.9858 603.563 78.141 602.846 78.4446C602.152 78.7585 601.633 79.2904 601.288 80.0402C600.746 81.2216 601.054 82.2294 602.211 83.0634C603.379 83.8747 604.895 84.708 606.758 85.5632C607.553 85.9283 608.212 86.2307 608.735 86.4706C609.268 86.6878 609.773 86.9059 610.25 87.1249C610.737 87.3213 611.299 87.5654 611.935 87.8575C613.208 88.4416 614.417 89.134 615.562 89.9349C616.707 90.7358 617.629 91.723 618.328 92.8967C619.028 94.0704 619.36 95.4744 619.324 97.1088C619.302 98.7764 618.758 100.769 617.695 103.086C616.766 105.108 615.572 106.692 614.111 107.837C612.662 109.015 611.027 109.791 609.205 110.165C607.395 110.572 605.512 110.629 603.556 110.336C601.612 110.076 599.685 109.509 597.777 108.632ZM610.286 79.1366C608.9 78.5003 607.575 77.6719 606.31 76.6513C605.056 75.6079 604.01 74.4123 603.17 73.0642C602.342 71.6935 601.855 70.1772 601.71 68.5152C601.588 66.8637 601.96 65.095 602.826 63.2092C603.691 61.3234 604.785 59.8999 606.106 58.9386C607.461 57.965 608.923 57.357 610.492 57.1146C612.072 56.8495 613.661 56.8637 615.259 57.1572C616.868 57.4281 618.365 57.8816 619.751 58.5179C621.137 59.1541 622.434 59.9835 623.643 61.006C624.885 62.0161 625.897 63.1962 626.681 64.546C627.474 65.8732 627.921 67.3573 628.02 68.9984C628.13 70.6168 627.752 72.3689 626.886 74.2547C626.021 76.1405 624.933 77.5806 623.624 78.575C622.315 79.5695 620.893 80.2097 619.359 80.4957C617.835 80.759 616.28 80.7604 614.694 80.5C613.141 80.2273 611.672 79.7728 610.286 79.1366ZM610.364 78.9662C611.705 79.5815 613.019 79.5937 614.309 79.0026C615.608 78.3889 616.806 77.3981 617.901 76.0305C619.03 74.6505 619.98 73.1199 620.752 71.4386C621.524 69.7573 622.06 68.0502 622.36 66.3175C622.683 64.5952 622.649 63.0526 622.256 61.6898C621.875 60.3041 621.013 59.3037 619.673 58.6883C618.332 58.0729 617.012 58.0721 615.713 58.6859C614.424 59.2769 613.22 60.2511 612.102 61.6083C611.006 62.976 610.073 64.5005 609.301 66.1818C608.529 67.8631 607.885 69.5345 607.37 71.1961C606.866 72.835 606.781 74.3368 607.118 75.7015C607.487 77.054 608.569 78.1422 610.364 78.9662ZM633.726 76.0741C632.885 75.6882 632.237 75.033 631.781 74.1085C631.325 73.184 631.353 72.1651 631.864 71.0518C632.386 69.9158 633.119 69.2761 634.065 69.1328C635.045 68.9771 635.943 69.087 636.761 69.4625C637.602 69.8484 638.282 70.4634 638.803 71.3074C639.356 72.1392 639.419 73.0208 638.991 73.9524L638.889 73.9054C639.442 72.7012 639.515 71.3732 639.109 69.9213C638.736 68.4571 637.697 67.3339 635.993 66.5516C635.062 66.124 633.907 65.8828 632.529 65.8279C631.184 65.7608 629.758 66.0824 628.249 66.7927C626.75 67.4802 625.31 68.7307 623.927 70.5442L623.757 70.466C625.181 68.5616 626.67 67.2647 628.225 66.5753C629.779 65.8859 631.24 65.58 632.607 65.6575C634.008 65.7228 635.162 65.964 636.071 66.3812C637.185 66.8923 638.024 67.5803 638.59 68.4452C639.156 69.3101 639.472 70.2392 639.538 71.2326C639.616 72.2033 639.456 73.1203 639.06 73.9837C638.392 75.4378 637.552 76.2488 636.54 76.4167C635.527 76.5847 634.589 76.4705 633.726 76.0741Z" fill="#B3B0AA"/>
<path d="M571.27 41.0294L560.521 73.6145L564.83 75.036L564.771 75.2141L549.778 70.2681L549.837 70.09L554.182 71.5233L564.872 39.1162L560.528 37.6829L560.587 37.5049L571.27 41.0294ZM589.716 58.2502L582.28 80.7927L586.589 82.2143L586.53 82.3923L571.537 77.4463L571.596 77.2682L575.869 78.678L583.048 56.919C583.706 54.9247 584.229 53.0573 584.619 51.3168C585.017 49.5526 585.08 48.0464 584.807 46.7981C584.558 45.5577 583.769 44.7182 582.439 44.2796C579.899 43.4415 577.697 43.3733 575.833 44.0747C573.97 44.7762 572.372 45.9077 571.041 47.4693C569.734 49.0387 568.648 50.7734 567.784 52.6734C566.921 54.5735 566.226 56.3189 565.702 57.9095L565.442 58.2187C565.998 56.533 566.707 54.7006 567.571 52.7215C568.442 50.7187 569.555 48.9009 570.91 47.2681C572.265 45.6353 573.937 44.4759 575.927 43.7898C577.941 43.1116 580.349 43.2346 583.15 44.1588C585.928 45.0752 587.888 46.2352 589.031 47.6389C590.198 49.0504 590.772 50.6614 590.754 52.4718C590.744 54.2586 590.398 56.1847 589.716 58.2502Z" fill="#B3B0AA"/>
<path d="M547.546 20.6841C546.355 20.3996 545.423 19.7273 544.751 18.6672C544.109 17.5886 543.93 16.4536 544.214 15.2621C544.505 14.0462 545.177 13.1144 546.231 12.4665C547.31 11.8245 548.445 11.6457 549.637 11.9302C550.852 12.2205 551.784 12.8928 552.432 13.9471C553.08 15.0014 553.259 16.1364 552.968 17.3523C552.684 18.5438 552.012 19.4756 550.952 20.1478C549.897 20.7957 548.762 20.9744 547.546 20.6841ZM547.657 34.5901L539.688 67.9644L544.065 69.0095L544.022 69.1919L528.666 65.5253L528.709 65.3429L533.123 66.3968L541.048 33.2048L536.635 32.151L536.678 31.9686L547.657 34.5901Z" fill="#B3B0AA"/>
<path d="M509.95 45.143C510.335 42.8247 510.843 40.6029 511.475 38.4777C512.107 36.3524 512.913 34.4716 513.894 32.8352C514.9 31.2029 516.116 29.9856 517.542 29.1833C518.972 28.3563 520.661 28.1046 522.609 28.428C523.99 28.6573 525.127 29.1375 526.019 29.8685C526.94 30.579 527.596 31.4355 527.987 32.4381C528.378 33.4407 528.484 34.4845 528.304 35.5697C528.095 36.8275 527.537 37.8245 526.629 38.5607C525.745 39.3011 524.626 39.5586 523.269 39.3334C521.863 39.1 520.829 38.5356 520.167 37.64C519.53 36.7485 519.303 35.7479 519.487 34.6381C519.729 33.183 520.38 32.1633 521.44 31.5791C522.5 30.9948 523.56 30.7907 524.62 30.9667C525.434 31.1019 526.131 31.4076 526.711 31.884C527.319 32.3399 527.759 32.8944 528.031 33.5477C528.307 34.1764 528.385 34.8483 528.267 35.5635L528.119 35.539C528.295 34.4785 528.183 33.4716 527.784 32.5183C527.413 31.5445 526.792 30.7065 525.921 30.0042C525.049 29.3019 523.935 28.8382 522.578 28.613C520.655 28.2936 518.99 28.5495 517.585 29.3806C516.18 30.2116 514.987 31.4454 514.006 33.0818C513.028 34.6935 512.224 36.562 511.592 38.6872C510.965 40.7878 510.467 42.9479 510.098 45.1675L509.95 45.143ZM513.016 27.5956L507.396 61.4447L511.872 62.1879L511.841 62.3729L496.267 59.7871L496.298 59.6021L500.811 60.3514L506.4 26.6873L501.887 25.9379L501.918 25.753L513.016 27.5956Z" fill="#B3B0AA"/>
<path d="M447.126 56.1435L447.137 55.9564L469.557 57.3378C471.703 57.4701 473.729 56.9186 475.633 55.6834C477.539 54.4232 479.113 52.6666 480.354 50.4137C481.621 48.1373 482.346 45.5145 482.529 42.5451C482.712 39.5757 482.301 37.0958 481.297 35.1052C480.317 33.1162 478.945 31.604 477.181 30.5685C475.416 29.533 473.461 28.9491 471.315 28.8169L462.369 28.2657L462.381 28.0786L472.112 28.6782C475.631 28.895 478.836 29.5183 481.728 30.5481C484.62 31.5779 486.893 33.1081 488.546 35.1386C490.199 37.1691 490.926 39.8063 490.726 43.0502C490.38 48.6645 488.398 52.5875 484.779 54.8192C481.186 57.0274 476.37 57.9455 470.332 57.5734L447.126 56.1435ZM453.83 56.4815L457.28 0.487679L464.429 0.928172L460.979 56.922L453.83 56.4815ZM462.372 28.2283L462.383 28.0411L470.617 28.5485C472.514 28.6654 474.337 28.3519 476.086 27.608C477.861 26.8408 479.342 25.567 480.529 23.7866C481.742 21.9828 482.44 19.5962 482.623 16.6268C482.806 13.6574 482.415 11.066 481.449 8.85239C480.509 6.64035 479.213 4.8949 477.564 3.61603C475.914 2.33717 474.154 1.64008 472.283 1.52477L450.574 0.187145L450.585 0L472.294 1.33762C477.958 1.68663 482.42 3.06361 485.678 5.46854C488.963 7.85006 490.455 11.4737 490.155 16.3395C489.856 21.2053 488.032 24.587 484.684 26.4847C481.337 28.3574 476.645 29.1077 470.606 28.7357L462.372 28.2283Z" fill="#B3B0AA"/>
</svg>
